<svg width="330" height="180" viewBox="0 0 330 180" fill="none" xmlns="http://www.w3.org/2000/svg">
<rect width="330" height="180" rx="10" fill="#3056D3"/>
<mask id="mask0_1753_657" style="mask-type:alpha" maskUnits="userSpaceOnUse" x="0" y="0" width="330" height="180">
<rect width="330" height="180" rx="10" fill="#3056D3"/>
</mask>
<g mask="url(#mask0_1753_657)">
<path fill-rule="evenodd" clip-rule="evenodd" d="M287.125 35.6485C287.135 33.1276 285.051 32.0392 283.433 31.1935C282.409 30.6587 281.572 30.2213 281.572 29.5806C281.572 29.0345 282.102 28.4563 283.23 28.307C284.571 28.1747 285.924 28.409 287.141 28.9854L287.838 25.6784C286.651 25.2343 285.393 25.0047 284.125 25C280.213 25 277.494 27.0834 277.494 30.0597C277.494 32.2593 279.467 33.4829 280.959 34.2104C282.451 34.938 283.031 35.4501 283.014 36.1115C283.014 37.1367 281.788 37.5996 280.644 37.6166C279.233 37.6346 277.841 37.2935 276.599 36.6245L275.886 39.9315C277.291 40.4786 278.788 40.7536 280.296 40.7413C284.456 40.7413 287.192 38.6909 287.208 35.5162L287.125 35.6485ZM276.367 25.2655L273.052 40.5599H269.074L272.389 25.2655H276.367ZM293.043 35.1855L295.131 29.4484L296.342 35.1855H293.043ZM301.149 40.6099H297.469L296.988 38.3281H291.999L291.186 40.6099H287.009L292.96 26.439C293.234 25.7644 293.887 25.3213 294.618 25.3146H297.933L301.149 40.6099ZM264.349 40.5098L270.781 25.2154H266.471L262.344 35.6154L260.686 26.7697C260.539 25.8702 259.759 25.2117 258.846 25.2154H252.1L252 25.6614C253.353 25.926 254.668 26.3587 255.912 26.9511C256.442 27.1996 256.801 27.7089 256.857 28.2909L260.023 40.5098H264.349Z" fill="white"/>
<path opacity="0.3" d="M274 180C274 164.536 286.536 152 302 152V180H274Z" fill="white"/>
<path opacity="0.1" d="M246 152H274V180H246V152Z" fill="white"/>
<path opacity="0.3" d="M302 152C302 136.536 314.536 124 330 124V152H302Z" fill="white"/>
<path opacity="0.3" d="M246 152C246 136.536 258.536 124 274 124V152H246Z" fill="white"/>
<path opacity="0.6" d="M274 124C289.464 124 302 136.536 302 152H274V124Z" fill="white"/>
<circle opacity="0.05" cx="11.5" cy="9.5" r="99.5" fill="white"/>
<circle opacity="0.05" cx="11.5" cy="9.5" r="68.5" fill="white"/>
<circle opacity="0.08" cx="11.5" cy="9.5" r="35.5" fill="white"/>
</g>
<path opacity="0.6" d="M37.1903 124.273H35.767L38.9077 133H40.429L43.5696 124.273H42.1463L39.7173 131.381H39.6193L37.1903 124.273ZM44.6765 133L45.4776 130.69H48.8867L49.6836 133H51.0813L47.9407 124.273H46.4194L43.2788 133H44.6765ZM45.8612 129.582L47.1481 125.858H47.2163L48.5032 129.582H45.8612ZM52.3416 133H57.6129V131.866H53.6584V124.273H52.3416V133ZM60.4318 124.273H59.1151V133H60.4318V124.273ZM65.1747 133C67.8338 133 69.3722 131.351 69.3722 128.624C69.3722 125.909 67.8338 124.273 65.2642 124.273H62.3494V133H65.1747ZM63.6662 131.849V125.423H65.1832C67.0923 125.423 68.0767 126.565 68.0767 128.624C68.0767 130.69 67.0923 131.849 65.1023 131.849H63.6662ZM73.755 125.406H76.4737V133H77.7862V125.406H80.5092V124.273H73.755V125.406ZM82.0018 133H83.3185V129.195H87.6694V133H88.9904V124.273H87.6694V128.065H83.3185V124.273H82.0018V133ZM90.908 133H92.2248V129.697H94.0146C94.0444 129.697 94.07 129.697 94.0998 129.697L95.8725 133H97.3725L95.4379 129.467C96.5075 129.071 97.0401 128.18 97.0401 127.009C97.0401 125.402 96.043 124.273 94.0188 124.273H90.908V133ZM92.2248 128.564V125.402H93.8782C95.1779 125.402 95.7148 126.02 95.7148 127.009C95.7148 127.993 95.1779 128.564 93.8952 128.564H92.2248ZM104.255 124.273V129.906C104.255 131.091 103.436 131.943 102.107 131.943C100.782 131.943 99.9592 131.091 99.9592 129.906V124.273H98.6424V130.013C98.6424 131.845 100.015 133.145 102.107 133.145C104.199 133.145 105.576 131.845 105.576 130.013V124.273H104.255Z" fill="white"/>
<path d="M38.7884 155.119C40.6037 155.119 41.8864 154.088 41.8949 152.673C41.8864 151.574 41.1151 150.649 40.1392 150.474V150.423C40.9872 150.219 41.5625 149.422 41.571 148.48C41.5625 147.146 40.3864 146.153 38.7884 146.153C37.1733 146.153 35.9972 147.146 36.0057 148.48C35.9972 149.418 36.5724 150.219 37.4375 150.423V150.474C36.4446 150.649 35.6733 151.574 35.6818 152.673C35.6733 154.088 36.956 155.119 38.7884 155.119ZM38.7884 154.041C37.6974 154.041 37.0071 153.462 37.0156 152.588C37.0071 151.68 37.7571 151.033 38.7884 151.033C39.8026 151.033 40.5526 151.68 40.5611 152.588C40.5526 153.462 39.8665 154.041 38.7884 154.041ZM38.7884 149.98C37.9062 149.98 37.2798 149.422 37.2884 148.591C37.2798 147.773 37.8849 147.232 38.7884 147.232C39.6747 147.232 40.2798 147.773 40.2884 148.591C40.2798 149.422 39.6577 149.98 38.7884 149.98ZM46.7624 145.864H45.6246L42.8121 156.312H43.9499L46.7624 145.864ZM51.1388 146.273H49.8562L47.6786 147.696V148.957L49.7667 147.594H49.8178V155H51.1388V146.273ZM53.4996 155H59.244V153.871H55.315V153.807L57.0494 151.991C58.6474 150.376 59.1033 149.605 59.1033 148.629C59.1033 147.227 57.9613 146.153 56.3164 146.153C54.6843 146.153 53.4911 147.21 53.4911 148.804H54.7482C54.744 147.866 55.3491 147.253 56.2908 147.253C57.1772 147.253 57.8505 147.798 57.8505 148.668C57.8505 149.439 57.3903 149.993 56.4528 150.986L53.4996 154.045V155Z" fill="white"/>
<path opacity="0.6" d="M145.207 127.111C144.909 125.244 143.447 124.153 141.602 124.153C139.344 124.153 137.678 125.845 137.678 128.636C137.678 131.428 139.335 133.119 141.602 133.119C143.52 133.119 144.922 131.918 145.207 130.192L143.878 130.188C143.652 131.304 142.714 131.918 141.611 131.918C140.115 131.918 138.986 130.771 138.986 128.636C138.986 126.518 140.111 125.355 141.615 125.355C142.727 125.355 143.661 125.982 143.878 127.111H145.207ZM147.462 133L148.263 130.69H151.672L152.469 133H153.866L150.726 124.273H149.205L146.064 133H147.462ZM148.646 129.582L149.933 125.858H150.001L151.288 129.582H148.646ZM155.127 133H156.444V129.697H158.233C158.263 129.697 158.289 129.697 158.319 129.697L160.091 133H161.591L159.657 129.467C160.726 129.071 161.259 128.18 161.259 127.009C161.259 125.402 160.262 124.273 158.238 124.273H155.127V133ZM156.444 128.564V125.402H158.097C159.397 125.402 159.934 126.02 159.934 127.009C159.934 127.993 159.397 128.564 158.114 128.564H156.444ZM165.686 133C168.346 133 169.884 131.351 169.884 128.624C169.884 125.909 168.346 124.273 165.776 124.273H162.861V133H165.686ZM164.178 131.849V125.423H165.695C167.604 125.423 168.588 126.565 168.588 128.624C168.588 130.69 167.604 131.849 165.614 131.849H164.178ZM174.697 133H176.014V129.195H180.365V133H181.686V124.273H180.365V128.065H176.014V124.273H174.697V133ZM191.184 128.636C191.184 125.845 189.514 124.153 187.255 124.153C184.988 124.153 183.322 125.845 183.322 128.636C183.322 131.423 184.988 133.119 187.255 133.119C189.514 133.119 191.184 131.428 191.184 128.636ZM189.88 128.636C189.88 130.763 188.755 131.918 187.255 131.918C185.751 131.918 184.63 130.763 184.63 128.636C184.63 126.51 185.751 125.355 187.255 125.355C188.755 125.355 189.88 126.51 189.88 128.636ZM192.826 133H198.097V131.866H194.143V124.273H192.826V133ZM202.425 133C205.084 133 206.622 131.351 206.622 128.624C206.622 125.909 205.084 124.273 202.514 124.273H199.599V133H202.425ZM200.916 131.849V125.423H202.433C204.342 125.423 205.327 126.565 205.327 128.624C205.327 130.69 204.342 131.849 202.352 131.849H200.916ZM208.26 133H213.782V131.866H209.576V129.195H213.446V128.065H209.576V125.406H213.731V124.273H208.26V133ZM215.49 133H216.807V129.697H218.597C218.626 129.697 218.652 129.697 218.682 129.697L220.455 133H221.955L220.02 129.467C221.089 129.071 221.622 128.18 221.622 127.009C221.622 125.402 220.625 124.273 218.601 124.273H215.49V133ZM216.807 128.564V125.402H218.46C219.76 125.402 220.297 126.02 220.297 127.009C220.297 127.993 219.76 128.564 218.477 128.564H216.807Z" fill="white"/>
<path d="M137.959 146.273V155H139.212V148.68H139.293L141.866 154.987H142.906L145.48 148.685H145.561V155H146.814V146.273H145.216L142.438 153.057H142.335L139.557 146.273H137.959ZM152.772 152.286C152.777 153.398 151.95 153.926 151.234 153.926C150.446 153.926 149.9 153.355 149.9 152.464V148.455H148.626V152.618C148.626 154.241 149.517 155.085 150.774 155.085C151.758 155.085 152.427 154.565 152.73 153.866H152.798V155H154.051V148.455H152.772V152.286ZM160.668 150.053C160.403 149.034 159.607 148.369 158.192 148.369C156.713 148.369 155.665 149.149 155.665 150.308C155.665 151.237 156.227 151.855 157.455 152.128L158.562 152.371C159.193 152.511 159.487 152.793 159.487 153.202C159.487 153.709 158.946 154.105 158.111 154.105C157.348 154.105 156.858 153.777 156.705 153.134L155.473 153.321C155.686 154.48 156.649 155.132 158.119 155.132C159.7 155.132 160.795 154.293 160.795 153.108C160.795 152.183 160.207 151.612 159.006 151.335L157.966 151.097C157.246 150.926 156.935 150.683 156.939 150.24C156.935 149.737 157.48 149.379 158.205 149.379C158.997 149.379 159.364 149.818 159.513 150.257L160.668 150.053ZM163.471 151.114C163.471 150.07 164.131 149.473 165.039 149.473C165.917 149.473 166.441 150.031 166.441 150.99V155H167.715V150.837C167.715 149.205 166.82 148.369 165.473 148.369C164.455 148.369 163.841 148.812 163.534 149.52H163.453V146.273H162.196V155H163.471V151.114ZM171.32 155.145C172.402 155.145 173.012 154.595 173.255 154.105H173.306V155H174.55V150.653C174.55 148.749 173.05 148.369 172.01 148.369C170.826 148.369 169.735 148.847 169.309 150.04L170.506 150.312C170.694 149.848 171.171 149.401 172.027 149.401C172.85 149.401 173.272 149.831 173.272 150.572V150.602C173.272 151.067 172.794 151.058 171.618 151.195C170.378 151.339 169.108 151.663 169.108 153.151C169.108 154.438 170.076 155.145 171.32 155.145ZM171.597 154.122C170.877 154.122 170.357 153.798 170.357 153.168C170.357 152.486 170.962 152.243 171.699 152.145C172.113 152.089 173.093 151.979 173.276 151.795V152.639C173.276 153.415 172.658 154.122 171.597 154.122ZM176.247 155H177.521V151.003C177.521 150.146 178.182 149.528 179.085 149.528C179.349 149.528 179.648 149.575 179.75 149.605V148.386C179.622 148.369 179.371 148.357 179.209 148.357C178.442 148.357 177.786 148.791 177.547 149.494H177.479V148.455H176.247V155ZM183.375 155.132C185.221 155.132 186.426 153.781 186.426 151.757C186.426 149.72 185.221 148.369 183.375 148.369C181.53 148.369 180.324 149.72 180.324 151.757C180.324 153.781 181.53 155.132 183.375 155.132ZM183.38 154.062C182.174 154.062 181.611 153.01 181.611 151.753C181.611 150.5 182.174 149.435 183.38 149.435C184.577 149.435 185.14 150.5 185.14 151.753C185.14 153.01 184.577 154.062 183.38 154.062ZM190.964 148.455H189.553V147.866C189.553 147.287 189.792 146.972 190.414 146.972C190.678 146.972 190.866 147.031 190.985 147.07L191.283 146.038C191.104 145.97 190.734 145.864 190.218 145.864C189.183 145.864 188.275 146.469 188.275 147.696V148.455H187.265V149.477H188.275V155H189.553V149.477H190.964V148.455ZM195.393 148.455H193.983V147.866C193.983 147.287 194.222 146.972 194.844 146.972C195.108 146.972 195.295 147.031 195.415 147.07L195.713 146.038C195.534 145.97 195.163 145.864 194.648 145.864C193.612 145.864 192.705 146.469 192.705 147.696V148.455H191.695V149.477H192.705V155H193.983V149.477H195.393V148.455ZM207.235 149.111C206.936 147.244 205.475 146.153 203.63 146.153C201.371 146.153 199.705 147.845 199.705 150.636C199.705 153.428 201.363 155.119 203.63 155.119C205.547 155.119 206.949 153.918 207.235 152.192L205.905 152.188C205.679 153.304 204.742 153.918 203.638 153.918C202.142 153.918 201.013 152.771 201.013 150.636C201.013 148.518 202.138 147.355 203.642 147.355C204.755 147.355 205.688 147.982 205.905 149.111H207.235ZM209.982 151.114C209.982 150.07 210.643 149.473 211.55 149.473C212.428 149.473 212.952 150.031 212.952 150.99V155H214.227V150.837C214.227 149.205 213.332 148.369 211.985 148.369C210.967 148.369 210.353 148.812 210.046 149.52H209.965V146.273H208.708V155H209.982V151.114ZM216.498 157.455C217.55 157.455 218.215 156.905 218.594 155.874L221.3 148.467L219.924 148.455L218.266 153.534H218.198L216.54 148.455H215.177L217.572 155.085L217.414 155.52C217.09 156.389 216.634 156.462 215.935 156.27L215.629 157.314C215.782 157.382 216.114 157.455 216.498 157.455Z" fill="white"/>
<path d="M44.5753 43.1293H43.0241C42.9645 42.7978 42.8535 42.5062 42.6911 42.2543C42.5286 42.0024 42.3298 41.7886 42.0945 41.6129C41.8591 41.4373 41.5956 41.3047 41.304 41.2152C41.0156 41.1257 40.709 41.081 40.3842 41.081C39.7976 41.081 39.2723 41.2285 38.8082 41.5234C38.3475 41.8184 37.983 42.2509 37.7145 42.821C37.4493 43.3911 37.3168 44.0871 37.3168 44.9091C37.3168 45.7377 37.4493 46.437 37.7145 47.0071C37.983 47.5772 38.3492 48.008 38.8132 48.2997C39.2772 48.5914 39.7992 48.7372 40.3793 48.7372C40.7008 48.7372 41.0057 48.6941 41.294 48.608C41.5857 48.5185 41.8492 48.3875 42.0845 48.2152C42.3198 48.0429 42.5187 47.8324 42.6811 47.5838C42.8468 47.3319 42.9612 47.0436 43.0241 46.7188L44.5753 46.7237C44.4924 47.2242 44.3317 47.6849 44.093 48.1058C43.8577 48.5234 43.5545 48.8847 43.1832 49.1896C42.8153 49.4912 42.3944 49.7249 41.9205 49.8906C41.4465 50.0563 40.9295 50.1392 40.3693 50.1392C39.4877 50.1392 38.7022 49.9304 38.0128 49.5128C37.3234 49.0919 36.7798 48.4903 36.3821 47.7081C35.9877 46.9259 35.7905 45.9929 35.7905 44.9091C35.7905 43.822 35.9893 42.889 36.3871 42.1101C36.7848 41.3279 37.3284 40.728 38.0178 40.3104C38.7071 39.8894 39.491 39.679 40.3693 39.679C40.9096 39.679 41.4134 39.7569 41.8807 39.9126C42.3513 40.0651 42.7739 40.2905 43.1484 40.5888C43.523 40.8838 43.8329 41.245 44.0781 41.6726C44.3234 42.0968 44.4891 42.5824 44.5753 43.1293ZM48.5165 50.169C48.0326 50.169 47.5951 50.0795 47.204 49.9006C46.8129 49.7183 46.503 49.4548 46.2743 49.1101C46.0489 48.7654 45.9363 48.3428 45.9363 47.8423C45.9363 47.4115 46.0191 47.0568 46.1848 46.7784C46.3506 46.5 46.5743 46.2796 46.856 46.1172C47.1377 45.9548 47.4526 45.8321 47.8006 45.7493C48.1486 45.6664 48.5033 45.6035 48.8645 45.5604C49.3219 45.5073 49.6931 45.4643 49.9782 45.4311C50.2632 45.3946 50.4703 45.3366 50.5996 45.2571C50.7289 45.1776 50.7935 45.0483 50.7935 44.8693V44.8345C50.7935 44.4003 50.6709 44.0639 50.4256 43.8253C50.1837 43.5866 49.8224 43.4673 49.3418 43.4673C48.8413 43.4673 48.4469 43.5784 48.1586 43.8004C47.8735 44.0192 47.6763 44.2628 47.5669 44.5312L46.1699 44.2131C46.3356 43.7491 46.5776 43.3745 46.8958 43.0895C47.2173 42.8011 47.5868 42.5923 48.0044 42.4631C48.4221 42.3305 48.8612 42.2642 49.3219 42.2642C49.6268 42.2642 49.95 42.3007 50.2914 42.3736C50.6361 42.4432 50.9576 42.5724 51.2559 42.7614C51.5575 42.9503 51.8044 43.2204 51.9966 43.5717C52.1889 43.9197 52.285 44.3722 52.285 44.929V50H50.8333V48.956H50.7736C50.6775 49.1482 50.5333 49.3371 50.3411 49.5227C50.1489 49.7083 49.9019 49.8625 49.6003 49.9851C49.2987 50.1077 48.9374 50.169 48.5165 50.169ZM48.8397 48.9759C49.2507 48.9759 49.602 48.8946 49.8936 48.7322C50.1886 48.5698 50.4123 48.3577 50.5648 48.0959C50.7206 47.8307 50.7985 47.5473 50.7985 47.2457V46.2614C50.7454 46.3144 50.6427 46.3641 50.4902 46.4105C50.3411 46.4536 50.1704 46.4917 49.9782 46.5249C49.7859 46.5547 49.5987 46.5829 49.4164 46.6094C49.2341 46.6326 49.0816 46.6525 48.959 46.669C48.6706 46.7055 48.4071 46.7668 48.1685 46.853C47.9332 46.9392 47.7443 47.0634 47.6017 47.2259C47.4625 47.3849 47.3929 47.5971 47.3929 47.8622C47.3929 48.2301 47.5288 48.5085 47.8006 48.6974C48.0724 48.883 48.4187 48.9759 48.8397 48.9759ZM54.2649 50V42.3636H55.7017V43.5767H55.7812C55.9205 43.1657 56.1657 42.8426 56.517 42.6072C56.8717 42.3686 57.2727 42.2493 57.7202 42.2493C57.813 42.2493 57.9223 42.2526 58.0483 42.2592C58.1776 42.2659 58.2786 42.2741 58.3516 42.2841V43.706C58.2919 43.6894 58.1858 43.6712 58.0334 43.6513C57.8809 43.6281 57.7285 43.6165 57.576 43.6165C57.2247 43.6165 56.9115 43.6911 56.6364 43.8402C56.3646 43.986 56.1491 44.1899 55.9901 44.4517C55.831 44.7102 55.7514 45.0052 55.7514 45.3366V50H54.2649ZM62.2232 50.1491C61.6067 50.1491 61.0565 49.9917 60.5726 49.6768C60.092 49.3587 59.7142 48.9062 59.4391 48.3196C59.1673 47.7296 59.0314 47.022 59.0314 46.1967C59.0314 45.3714 59.169 44.6655 59.4441 44.0788C59.7225 43.4922 60.1036 43.0431 60.5875 42.7315C61.0714 42.42 61.62 42.2642 62.2331 42.2642C62.7071 42.2642 63.0882 42.3438 63.3766 42.5028C63.6683 42.6586 63.8936 42.8409 64.0527 43.0497C64.2151 43.2585 64.3411 43.4425 64.4306 43.6016H64.5201V39.8182H66.0066V50H64.5549V48.8118H64.4306C64.3411 48.9742 64.2118 49.1598 64.0428 49.3686C63.8771 49.5774 63.6484 49.7597 63.3567 49.9155C63.065 50.0713 62.6872 50.1491 62.2232 50.1491ZM62.5513 48.8814C62.9789 48.8814 63.3401 48.7687 63.6351 48.5433C63.9334 48.3146 64.1588 47.9981 64.3113 47.5938C64.467 47.1894 64.5449 46.7187 64.5449 46.1818C64.5449 45.6515 64.4687 45.1875 64.3162 44.7898C64.1638 44.392 63.94 44.0821 63.6451 43.8601C63.3501 43.638 62.9855 43.527 62.5513 43.527C62.1039 43.527 61.731 43.643 61.4327 43.875C61.1344 44.107 60.909 44.4235 60.7566 44.8246C60.6074 45.2256 60.5328 45.678 60.5328 46.1818C60.5328 46.6922 60.6091 47.1513 60.7615 47.5589C60.914 47.9666 61.1394 48.2898 61.4377 48.5284C61.7393 48.7637 62.1105 48.8814 62.5513 48.8814ZM80.1706 39.8182V50H78.7587L73.5833 42.5327H73.4888V50H71.9526V39.8182H73.3745L78.5549 47.2955H78.6493V39.8182H80.1706ZM87.1296 46.8331V42.3636H88.6211V50H87.1594V48.6776H87.0799C86.9042 49.0852 86.6225 49.425 86.2347 49.6967C85.8503 49.9652 85.3713 50.0994 84.7979 50.0994C84.3074 50.0994 83.8732 49.9917 83.4954 49.7763C83.1209 49.5575 82.8259 49.2344 82.6104 48.8068C82.3983 48.3793 82.2923 47.8506 82.2923 47.2209V42.3636H83.7788V47.0419C83.7788 47.5623 83.9229 47.9766 84.2113 48.2848C84.4996 48.593 84.8742 48.7472 85.3349 48.7472C85.6133 48.7472 85.89 48.6776 86.1651 48.5384C86.4435 48.3991 86.6739 48.1887 86.8562 47.907C87.0418 47.6252 87.1329 47.2673 87.1296 46.8331ZM90.6184 50V42.3636H92.0453V43.6065H92.1397C92.2988 43.1856 92.559 42.8575 92.9203 42.6222C93.2815 42.3835 93.7141 42.2642 94.2179 42.2642C94.7283 42.2642 95.1558 42.3835 95.5005 42.6222C95.8485 42.8608 96.1054 43.1889 96.2711 43.6065H96.3507C96.533 43.1989 96.823 42.8741 97.2207 42.6321C97.6184 42.3868 98.0924 42.2642 98.6426 42.2642C99.3353 42.2642 99.9004 42.4813 100.338 42.9155C100.779 43.3497 100.999 44.0043 100.999 44.8793V50H99.5126V45.0185C99.5126 44.5014 99.3717 44.1269 99.09 43.8949C98.8083 43.6629 98.4719 43.5469 98.0808 43.5469C97.5969 43.5469 97.2207 43.696 96.9522 43.9943C96.6838 44.2893 96.5495 44.6688 96.5495 45.1328V50H95.068V44.924C95.068 44.5097 94.9387 44.1766 94.6802 43.9247C94.4217 43.6728 94.0853 43.5469 93.671 43.5469C93.3893 43.5469 93.1291 43.6214 92.8904 43.7706C92.6551 43.9164 92.4645 44.1203 92.3187 44.3821C92.1762 44.6439 92.1049 44.9472 92.1049 45.2919V50H90.6184ZM103.111 50V39.8182H104.597V43.6016H104.687C104.773 43.4425 104.897 43.2585 105.06 43.0497C105.222 42.8409 105.447 42.6586 105.736 42.5028C106.024 42.3438 106.405 42.2642 106.879 42.2642C107.496 42.2642 108.046 42.42 108.53 42.7315C109.014 43.0431 109.393 43.4922 109.668 44.0788C109.947 44.6655 110.086 45.3714 110.086 46.1967C110.086 47.022 109.948 47.7296 109.673 48.3196C109.398 48.9062 109.02 49.3587 108.54 49.6768C108.059 49.9917 107.511 50.1491 106.894 50.1491C106.43 50.1491 106.051 50.0713 105.756 49.9155C105.464 49.7597 105.235 49.5774 105.07 49.3686C104.904 49.1598 104.776 48.9742 104.687 48.8118H104.562V50H103.111ZM104.567 46.1818C104.567 46.7187 104.645 47.1894 104.801 47.5938C104.957 47.9981 105.182 48.3146 105.477 48.5433C105.772 48.7687 106.134 48.8814 106.561 48.8814C107.005 48.8814 107.376 48.7637 107.675 48.5284C107.973 48.2898 108.198 47.9666 108.351 47.5589C108.507 47.1513 108.585 46.6922 108.585 46.1818C108.585 45.678 108.508 45.2256 108.356 44.8246C108.207 44.4235 107.981 44.107 107.68 43.875C107.381 43.643 107.009 43.527 106.561 43.527C106.13 43.527 105.766 43.638 105.467 43.8601C105.172 44.0821 104.949 44.392 104.796 44.7898C104.644 45.1875 104.567 45.6515 104.567 46.1818ZM115.046 50.1541C114.294 50.1541 113.646 49.9934 113.102 49.6719C112.562 49.3471 112.145 48.8913 111.85 48.3047C111.558 47.7147 111.412 47.0237 111.412 46.2315C111.412 45.4493 111.558 44.7599 111.85 44.1634C112.145 43.5668 112.556 43.1011 113.083 42.7663C113.613 42.4316 114.233 42.2642 114.942 42.2642C115.373 42.2642 115.79 42.3355 116.195 42.478C116.599 42.6205 116.962 42.8442 117.284 43.1491C117.605 43.4541 117.859 43.8501 118.044 44.3374C118.23 44.8213 118.323 45.4096 118.323 46.1023V46.6293H112.252V45.5156H116.866C116.866 45.1245 116.786 44.7782 116.627 44.4766C116.468 44.1716 116.244 43.9313 115.956 43.7557C115.671 43.58 115.336 43.4922 114.952 43.4922C114.534 43.4922 114.17 43.5949 113.858 43.8004C113.55 44.0026 113.311 44.2678 113.142 44.5959C112.977 44.9207 112.894 45.2737 112.894 45.6548V46.5249C112.894 47.0353 112.983 47.4695 113.162 47.8274C113.344 48.1854 113.598 48.4588 113.923 48.6477C114.248 48.8333 114.627 48.9261 115.061 48.9261C115.343 48.9261 115.6 48.8864 115.832 48.8068C116.064 48.724 116.264 48.6013 116.433 48.4389C116.602 48.2765 116.732 48.076 116.821 47.8374L118.228 48.0909C118.115 48.5052 117.913 48.8681 117.622 49.1797C117.333 49.4879 116.97 49.7282 116.533 49.9006C116.099 50.0696 115.603 50.1541 115.046 50.1541ZM119.972 50V42.3636H121.409V43.5767H121.488C121.627 43.1657 121.873 42.8426 122.224 42.6072C122.579 42.3686 122.98 42.2493 123.427 42.2493C123.52 42.2493 123.629 42.2526 123.755 42.2592C123.885 42.2659 123.986 42.2741 124.059 42.2841V43.706C123.999 43.6894 123.893 43.6712 123.74 43.6513C123.588 43.6281 123.435 43.6165 123.283 43.6165C122.932 43.6165 122.618 43.6911 122.343 43.8402C122.072 43.986 121.856 44.1899 121.697 44.4517C121.538 44.7102 121.458 45.0052 121.458 45.3366V50H119.972Z" fill="white"/>
<path d="M38.7557 76.9091L38.8977 74.7102L37.0568 75.9432L36.2955 74.6023L38.2784 73.6364L36.2955 72.6705L37.0568 71.3295L38.8977 72.5625L38.7557 70.3636H40.2841L40.1364 72.5625L41.9773 71.3295L42.7386 72.6705L40.7614 73.6364L42.7386 74.6023L41.9773 75.9432L40.1364 74.7102L40.2841 76.9091H38.7557ZM47.7869 76.9091L47.929 74.7102L46.0881 75.9432L45.3267 74.6023L47.3097 73.6364L45.3267 72.6705L46.0881 71.3295L47.929 72.5625L47.7869 70.3636H49.3153L49.1676 72.5625L51.0085 71.3295L51.7699 72.6705L49.7926 73.6364L51.7699 74.6023L51.0085 75.9432L49.1676 74.7102L49.3153 76.9091H47.7869ZM56.8182 76.9091L56.9602 74.7102L55.1193 75.9432L54.358 74.6023L56.3409 73.6364L54.358 72.6705L55.1193 71.3295L56.9602 72.5625L56.8182 70.3636H58.3466L58.1989 72.5625L60.0398 71.3295L60.8011 72.6705L58.8239 73.6364L60.8011 74.6023L60.0398 75.9432L58.1989 74.7102L58.3466 76.9091H56.8182ZM65.8494 76.9091L65.9915 74.7102L64.1506 75.9432L63.3892 74.6023L65.3722 73.6364L63.3892 72.6705L64.1506 71.3295L65.9915 72.5625L65.8494 70.3636H67.3778L67.2301 72.5625L69.071 71.3295L69.8324 72.6705L67.8551 73.6364L69.8324 74.6023L69.071 75.9432L67.2301 74.7102L67.3778 76.9091H65.8494ZM82.2869 76.9091L82.429 74.7102L80.5881 75.9432L79.8267 74.6023L81.8097 73.6364L79.8267 72.6705L80.5881 71.3295L82.429 72.5625L82.2869 70.3636H83.8153L83.6676 72.5625L85.5085 71.3295L86.2699 72.6705L84.2926 73.6364L86.2699 74.6023L85.5085 75.9432L83.6676 74.7102L83.8153 76.9091H82.2869ZM91.3182 76.9091L91.4602 74.7102L89.6193 75.9432L88.858 74.6023L90.8409 73.6364L88.858 72.6705L89.6193 71.3295L91.4602 72.5625L91.3182 70.3636H92.8466L92.6989 72.5625L94.5398 71.3295L95.3011 72.6705L93.3239 73.6364L95.3011 74.6023L94.5398 75.9432L92.6989 74.7102L92.8466 76.9091H91.3182ZM100.349 76.9091L100.491 74.7102L98.6506 75.9432L97.8892 74.6023L99.8722 73.6364L97.8892 72.6705L98.6506 71.3295L100.491 72.5625L100.349 70.3636H101.878L101.73 72.5625L103.571 71.3295L104.332 72.6705L102.355 73.6364L104.332 74.6023L103.571 75.9432L101.73 74.7102L101.878 76.9091H100.349ZM109.381 76.9091L109.523 74.7102L107.682 75.9432L106.92 74.6023L108.903 73.6364L106.92 72.6705L107.682 71.3295L109.523 72.5625L109.381 70.3636H110.909L110.761 72.5625L112.602 71.3295L113.364 72.6705L111.386 73.6364L113.364 74.6023L112.602 75.9432L110.761 74.7102L110.909 76.9091H109.381ZM125.818 76.9091L125.96 74.7102L124.119 75.9432L123.358 74.6023L125.341 73.6364L123.358 72.6705L124.119 71.3295L125.96 72.5625L125.818 70.3636H127.347L127.199 72.5625L129.04 71.3295L129.801 72.6705L127.824 73.6364L129.801 74.6023L129.04 75.9432L127.199 74.7102L127.347 76.9091H125.818ZM134.849 76.9091L134.991 74.7102L133.151 75.9432L132.389 74.6023L134.372 73.6364L132.389 72.6705L133.151 71.3295L134.991 72.5625L134.849 70.3636H136.378L136.23 72.5625L138.071 71.3295L138.832 72.6705L136.855 73.6364L138.832 74.6023L138.071 75.9432L136.23 74.7102L136.378 76.9091H134.849ZM143.881 76.9091L144.023 74.7102L142.182 75.9432L141.42 74.6023L143.403 73.6364L141.42 72.6705L142.182 71.3295L144.023 72.5625L143.881 70.3636H145.409L145.261 72.5625L147.102 71.3295L147.864 72.6705L145.886 73.6364L147.864 74.6023L147.102 75.9432L145.261 74.7102L145.409 76.9091H143.881ZM152.912 76.9091L153.054 74.7102L151.213 75.9432L150.452 74.6023L152.435 73.6364L150.452 72.6705L151.213 71.3295L153.054 72.5625L152.912 70.3636H154.44L154.293 72.5625L156.134 71.3295L156.895 72.6705L154.918 73.6364L156.895 74.6023L156.134 75.9432L154.293 74.7102L154.44 76.9091H152.912Z" fill="white"/>
<path d="M169.766 78V76.5597L173.132 73.4435C173.418 73.1665 173.658 72.9173 173.852 72.6957C174.049 72.4741 174.198 72.2571 174.3 72.0447C174.401 71.8293 174.452 71.5969 174.452 71.3477C174.452 71.0707 174.389 70.8321 174.263 70.6321C174.137 70.429 173.964 70.2736 173.746 70.1658C173.527 70.055 173.279 69.9996 173.002 69.9996C172.713 69.9996 172.461 70.0581 172.245 70.1751C172.03 70.292 171.864 70.4598 171.747 70.6783C171.63 70.8968 171.571 71.1568 171.571 71.4585H169.674C169.674 70.8398 169.814 70.3028 170.094 69.8473C170.374 69.3918 170.767 69.0394 171.271 68.7901C171.776 68.5408 172.358 68.4162 173.016 68.4162C173.693 68.4162 174.283 68.5362 174.784 68.7763C175.289 69.0133 175.682 69.3426 175.962 69.7642C176.242 70.1858 176.382 70.669 176.382 71.2138C176.382 71.5708 176.311 71.9232 176.169 72.271C176.031 72.6187 175.783 73.005 175.426 73.4297C175.069 73.8513 174.566 74.3576 173.917 74.9485L172.536 76.3011V76.3658H176.506V78H169.766ZM182.068 68.5455V78H180.069V70.4428H180.014L177.849 71.8001V70.0273L180.189 68.5455H182.068ZM187.81 78.1293C187.12 78.1293 186.506 78.0108 185.968 77.7738C185.432 77.5337 185.009 77.2044 184.698 76.7859C184.391 76.3642 184.232 75.878 184.223 75.3271H186.236C186.248 75.5579 186.323 75.761 186.462 75.9364C186.603 76.1088 186.791 76.2427 187.025 76.3381C187.259 76.4335 187.522 76.4812 187.814 76.4812C188.119 76.4812 188.388 76.4273 188.622 76.3196C188.856 76.2119 189.039 76.0626 189.172 75.8718C189.304 75.681 189.37 75.4609 189.37 75.2116C189.37 74.9593 189.299 74.7362 189.158 74.5423C189.019 74.3453 188.819 74.1914 188.558 74.0806C188.299 73.9698 187.991 73.9144 187.634 73.9144H186.753V72.4464H187.634C187.936 72.4464 188.202 72.3941 188.433 72.2894C188.667 72.1848 188.849 72.0401 188.978 71.8555C189.107 71.6677 189.172 71.4492 189.172 71.1999C189.172 70.9629 189.115 70.7552 189.001 70.5767C188.89 70.3951 188.733 70.2536 188.53 70.152C188.33 70.0504 188.096 69.9996 187.828 69.9996C187.557 69.9996 187.31 70.0489 187.085 70.1474C186.86 70.2428 186.68 70.3797 186.545 70.5582C186.41 70.7367 186.337 70.946 186.328 71.1861H184.412C184.421 70.6413 184.577 70.1612 184.878 69.7457C185.18 69.3303 185.586 69.0056 186.097 68.7717C186.611 68.5347 187.191 68.4162 187.838 68.4162C188.49 68.4162 189.061 68.5347 189.55 68.7717C190.04 69.0086 190.42 69.3287 190.691 69.7319C190.964 70.132 191.1 70.5813 191.097 71.0799C191.1 71.6093 190.935 72.0509 190.603 72.4048C190.273 72.7588 189.844 72.9834 189.315 73.0788V73.1527C190.01 73.242 190.54 73.4835 190.903 73.8775C191.269 74.2683 191.451 74.7577 191.448 75.3455C191.451 75.8841 191.295 76.3627 190.981 76.7812C190.671 77.1998 190.241 77.5291 189.693 77.7692C189.146 78.0092 188.518 78.1293 187.81 78.1293ZM193.258 78L197.178 70.2443V70.1797H192.612V68.5455H199.246V70.2028L195.322 78H193.258Z" fill="white"/>
</svg>
