<svg width="330" height="180" viewBox="0 0 330 180" fill="none" xmlns="http://www.w3.org/2000/svg">
<rect width="330" height="180" rx="10" fill="#13C296"/>
<mask id="mask0_1755_229" style="mask-type:alpha" maskUnits="userSpaceOnUse" x="0" y="0" width="330" height="180">
<rect width="330" height="180" rx="10" fill="#13C296"/>
</mask>
<g mask="url(#mask0_1755_229)">
<path fill-rule="evenodd" clip-rule="evenodd" d="M287.125 35.6485C287.135 33.1276 285.051 32.0392 283.433 31.1935C282.409 30.6587 281.572 30.2213 281.572 29.5806C281.572 29.0345 282.102 28.4563 283.23 28.307C284.571 28.1747 285.924 28.409 287.141 28.9854L287.838 25.6784C286.651 25.2343 285.393 25.0047 284.125 25C280.213 25 277.494 27.0834 277.494 30.0597C277.494 32.2593 279.467 33.4829 280.959 34.2104C282.451 34.938 283.031 35.4501 283.014 36.1115C283.014 37.1367 281.788 37.5996 280.644 37.6166C279.233 37.6346 277.841 37.2935 276.599 36.6245L275.886 39.9315C277.291 40.4786 278.788 40.7536 280.296 40.7413C284.456 40.7413 287.192 38.6909 287.208 35.5162L287.125 35.6485ZM276.367 25.2655L273.052 40.5599H269.074L272.389 25.2655H276.367ZM293.043 35.1855L295.131 29.4484L296.342 35.1855H293.043ZM301.149 40.6099H297.469L296.988 38.3281H291.999L291.186 40.6099H287.009L292.96 26.439C293.234 25.7644 293.887 25.3213 294.618 25.3146H297.933L301.149 40.6099ZM264.349 40.5098L270.781 25.2154H266.471L262.344 35.6154L260.686 26.7697C260.539 25.8702 259.759 25.2117 258.846 25.2154H252.1L252 25.6614C253.353 25.926 254.668 26.3587 255.912 26.9511C256.442 27.1996 256.801 27.7089 256.857 28.2909L260.023 40.5098H264.349Z" fill="white"/>
<path opacity="0.3" d="M274 180C274 164.536 286.536 152 302 152V180H274Z" fill="white"/>
<path opacity="0.1" d="M246 152H274V180H246V152Z" fill="white"/>
<path opacity="0.3" d="M302 152C302 136.536 314.536 124 330 124V152H302Z" fill="white"/>
<path opacity="0.3" d="M246 152C246 136.536 258.536 124 274 124V152H246Z" fill="white"/>
<path opacity="0.6" d="M274 124C289.464 124 302 136.536 302 152H274V124Z" fill="white"/>
<circle opacity="0.05" cx="11.5" cy="9.5" r="99.5" fill="white"/>
<circle opacity="0.05" cx="11.5" cy="9.5" r="68.5" fill="white"/>
<circle opacity="0.08" cx="11.5" cy="9.5" r="35.5" fill="white"/>
</g>
<path opacity="0.6" d="M37.1903 124.273H35.767L38.9077 133H40.429L43.5696 124.273H42.1463L39.7173 131.381H39.6193L37.1903 124.273ZM44.6765 133L45.4776 130.69H48.8867L49.6836 133H51.0813L47.9407 124.273H46.4194L43.2788 133H44.6765ZM45.8612 129.582L47.1481 125.858H47.2163L48.5032 129.582H45.8612ZM52.3416 133H57.6129V131.866H53.6584V124.273H52.3416V133ZM60.4318 124.273H59.1151V133H60.4318V124.273ZM65.1747 133C67.8338 133 69.3722 131.351 69.3722 128.624C69.3722 125.909 67.8338 124.273 65.2642 124.273H62.3494V133H65.1747ZM63.6662 131.849V125.423H65.1832C67.0923 125.423 68.0767 126.565 68.0767 128.624C68.0767 130.69 67.0923 131.849 65.1023 131.849H63.6662ZM73.755 125.406H76.4737V133H77.7862V125.406H80.5092V124.273H73.755V125.406ZM82.0018 133H83.3185V129.195H87.6694V133H88.9904V124.273H87.6694V128.065H83.3185V124.273H82.0018V133ZM90.908 133H92.2248V129.697H94.0146C94.0444 129.697 94.07 129.697 94.0998 129.697L95.8725 133H97.3725L95.4379 129.467C96.5075 129.071 97.0401 128.18 97.0401 127.009C97.0401 125.402 96.043 124.273 94.0188 124.273H90.908V133ZM92.2248 128.564V125.402H93.8782C95.1779 125.402 95.7148 126.02 95.7148 127.009C95.7148 127.993 95.1779 128.564 93.8952 128.564H92.2248ZM104.255 124.273V129.906C104.255 131.091 103.436 131.943 102.107 131.943C100.782 131.943 99.9592 131.091 99.9592 129.906V124.273H98.6424V130.013C98.6424 131.845 100.015 133.145 102.107 133.145C104.199 133.145 105.576 131.845 105.576 130.013V124.273H104.255Z" fill="white"/>
<path d="M38.7202 155.119C38.1861 155.119 37.706 155.017 37.2798 154.812C36.8565 154.605 36.5185 154.321 36.2656 153.96C36.0128 153.599 35.8778 153.188 35.8608 152.724H37.1392C37.1705 153.099 37.3366 153.408 37.6378 153.649C37.9389 153.891 38.2997 154.011 38.7202 154.011C39.0554 154.011 39.3523 153.935 39.6108 153.781C39.8722 153.625 40.0767 153.411 40.2244 153.138C40.375 152.865 40.4503 152.554 40.4503 152.205C40.4503 151.849 40.3736 151.533 40.2202 151.254C40.0668 150.976 39.8551 150.757 39.5852 150.598C39.3182 150.439 39.0114 150.358 38.6648 150.355C38.4006 150.355 38.1349 150.401 37.8679 150.491C37.6009 150.582 37.3849 150.702 37.2202 150.849L36.0142 150.67L36.5043 146.273H41.3026V147.402H37.5994L37.3224 149.844H37.3736C37.544 149.679 37.7699 149.541 38.0511 149.43C38.3352 149.32 38.6392 149.264 38.9631 149.264C39.4943 149.264 39.9673 149.391 40.3821 149.643C40.7997 149.896 41.1278 150.241 41.3665 150.679C41.608 151.114 41.7273 151.614 41.7244 152.179C41.7273 152.744 41.5994 153.249 41.3409 153.692C41.0852 154.135 40.7301 154.484 40.2756 154.74C39.8239 154.993 39.3054 155.119 38.7202 155.119ZM46.6218 145.864L43.8093 156.312H42.6715L45.484 145.864H46.6218ZM50.9982 146.273V155H49.6772V147.594H49.6261L47.538 148.957V147.696L49.7156 146.273H50.9982ZM53.1758 153.295V152.23L56.9471 146.273H57.7866V147.841H57.2539L54.5565 152.111V152.179H59.7255V153.295H53.1758ZM57.3136 155V152.972L57.3221 152.486V146.273H58.5707V155H57.3136Z" fill="white"/>
<path opacity="0.6" d="M145.207 127.111C144.909 125.244 143.447 124.153 141.602 124.153C139.344 124.153 137.678 125.845 137.678 128.636C137.678 131.428 139.335 133.119 141.602 133.119C143.52 133.119 144.922 131.918 145.207 130.192L143.878 130.188C143.652 131.304 142.714 131.918 141.611 131.918C140.115 131.918 138.986 130.771 138.986 128.636C138.986 126.518 140.111 125.355 141.615 125.355C142.727 125.355 143.661 125.982 143.878 127.111H145.207ZM147.462 133L148.263 130.69H151.672L152.469 133H153.866L150.726 124.273H149.205L146.064 133H147.462ZM148.646 129.582L149.933 125.858H150.001L151.288 129.582H148.646ZM155.127 133H156.444V129.697H158.233C158.263 129.697 158.289 129.697 158.319 129.697L160.091 133H161.591L159.657 129.467C160.726 129.071 161.259 128.18 161.259 127.009C161.259 125.402 160.262 124.273 158.238 124.273H155.127V133ZM156.444 128.564V125.402H158.097C159.397 125.402 159.934 126.02 159.934 127.009C159.934 127.993 159.397 128.564 158.114 128.564H156.444ZM165.686 133C168.346 133 169.884 131.351 169.884 128.624C169.884 125.909 168.346 124.273 165.776 124.273H162.861V133H165.686ZM164.178 131.849V125.423H165.695C167.604 125.423 168.588 126.565 168.588 128.624C168.588 130.69 167.604 131.849 165.614 131.849H164.178ZM174.697 133H176.014V129.195H180.365V133H181.686V124.273H180.365V128.065H176.014V124.273H174.697V133ZM191.184 128.636C191.184 125.845 189.514 124.153 187.255 124.153C184.988 124.153 183.322 125.845 183.322 128.636C183.322 131.423 184.988 133.119 187.255 133.119C189.514 133.119 191.184 131.428 191.184 128.636ZM189.88 128.636C189.88 130.763 188.755 131.918 187.255 131.918C185.751 131.918 184.63 130.763 184.63 128.636C184.63 126.51 185.751 125.355 187.255 125.355C188.755 125.355 189.88 126.51 189.88 128.636ZM192.826 133H198.097V131.866H194.143V124.273H192.826V133ZM202.425 133C205.084 133 206.622 131.351 206.622 128.624C206.622 125.909 205.084 124.273 202.514 124.273H199.599V133H202.425ZM200.916 131.849V125.423H202.433C204.342 125.423 205.327 126.565 205.327 128.624C205.327 130.69 204.342 131.849 202.352 131.849H200.916ZM208.26 133H213.782V131.866H209.576V129.195H213.446V128.065H209.576V125.406H213.731V124.273H208.26V133ZM215.49 133H216.807V129.697H218.597C218.626 129.697 218.652 129.697 218.682 129.697L220.455 133H221.955L220.02 129.467C221.089 129.071 221.622 128.18 221.622 127.009C221.622 125.402 220.625 124.273 218.601 124.273H215.49V133ZM216.807 128.564V125.402H218.46C219.76 125.402 220.297 126.02 220.297 127.009C220.297 127.993 219.76 128.564 218.477 128.564H216.807Z" fill="white"/>
<path d="M145.003 146.273V155H143.793L139.357 148.599H139.276V155H137.959V146.273H139.178L143.618 152.682H143.699V146.273H145.003ZM148.726 155.145C148.311 155.145 147.936 155.068 147.601 154.915C147.266 154.759 147 154.533 146.804 154.237C146.611 153.942 146.515 153.58 146.515 153.151C146.515 152.781 146.586 152.477 146.728 152.239C146.87 152 147.061 151.811 147.303 151.672C147.544 151.533 147.814 151.428 148.113 151.357C148.411 151.286 148.715 151.232 149.025 151.195C149.417 151.149 149.735 151.112 149.979 151.084C150.223 151.053 150.401 151.003 150.512 150.935C150.623 150.866 150.678 150.756 150.678 150.602V150.572C150.678 150.2 150.573 149.912 150.363 149.707C150.155 149.503 149.846 149.401 149.434 149.401C149.005 149.401 148.667 149.496 148.419 149.686C148.175 149.874 148.006 150.082 147.912 150.312L146.715 150.04C146.857 149.642 147.064 149.321 147.337 149.077C147.613 148.83 147.929 148.651 148.287 148.54C148.645 148.426 149.022 148.369 149.417 148.369C149.678 148.369 149.955 148.401 150.248 148.463C150.543 148.523 150.819 148.634 151.074 148.795C151.333 148.957 151.544 149.189 151.709 149.49C151.874 149.788 151.956 150.176 151.956 150.653V155H150.712V154.105H150.661C150.578 154.27 150.455 154.432 150.29 154.591C150.125 154.75 149.914 154.882 149.655 154.987C149.397 155.092 149.087 155.145 148.726 155.145ZM149.003 154.122C149.355 154.122 149.657 154.053 149.907 153.913C150.159 153.774 150.351 153.592 150.482 153.368C150.615 153.141 150.682 152.898 150.682 152.639V151.795C150.637 151.841 150.549 151.884 150.418 151.923C150.29 151.96 150.144 151.993 149.979 152.021C149.814 152.047 149.654 152.071 149.498 152.094C149.341 152.114 149.211 152.131 149.105 152.145C148.858 152.176 148.632 152.229 148.428 152.303C148.226 152.376 148.064 152.483 147.942 152.622C147.823 152.759 147.763 152.94 147.763 153.168C147.763 153.483 147.88 153.722 148.113 153.884C148.346 154.043 148.642 154.122 149.003 154.122ZM153.653 155V148.455H154.928V155H153.653ZM154.297 147.445C154.075 147.445 153.885 147.371 153.726 147.223C153.57 147.072 153.491 146.893 153.491 146.686C153.491 146.476 153.57 146.297 153.726 146.149C153.885 145.999 154.075 145.923 154.297 145.923C154.518 145.923 154.707 145.999 154.864 146.149C155.023 146.297 155.102 146.476 155.102 146.686C155.102 146.893 155.023 147.072 154.864 147.223C154.707 147.371 154.518 147.445 154.297 147.445ZM156.642 155V148.455H157.865V149.52H157.946C158.082 149.159 158.305 148.878 158.615 148.676C158.924 148.472 159.295 148.369 159.727 148.369C160.164 148.369 160.531 148.472 160.826 148.676C161.125 148.881 161.345 149.162 161.487 149.52H161.555C161.711 149.17 161.96 148.892 162.301 148.685C162.642 148.474 163.048 148.369 163.52 148.369C164.113 148.369 164.598 148.555 164.973 148.928C165.35 149.3 165.539 149.861 165.539 150.611V155H164.265V150.73C164.265 150.287 164.145 149.966 163.903 149.767C163.662 149.568 163.373 149.469 163.038 149.469C162.623 149.469 162.301 149.597 162.071 149.852C161.841 150.105 161.725 150.43 161.725 150.828V155H160.456V150.649C160.456 150.294 160.345 150.009 160.123 149.793C159.902 149.577 159.613 149.469 159.258 149.469C159.017 149.469 158.794 149.533 158.589 149.661C158.387 149.786 158.224 149.96 158.099 150.185C157.977 150.409 157.916 150.669 157.916 150.964V155H156.642ZM171.393 152.286V148.455H172.672V155H171.419V153.866H171.351C171.2 154.216 170.959 154.507 170.626 154.74C170.297 154.97 169.886 155.085 169.395 155.085C168.974 155.085 168.602 154.993 168.278 154.808C167.957 154.621 167.705 154.344 167.52 153.977C167.338 153.611 167.247 153.158 167.247 152.618V148.455H168.521V152.464C168.521 152.911 168.645 153.266 168.892 153.53C169.139 153.794 169.46 153.926 169.855 153.926C170.094 153.926 170.331 153.866 170.567 153.747C170.805 153.628 171.003 153.447 171.159 153.206C171.318 152.964 171.396 152.658 171.393 152.286ZM174.384 155V148.455H175.615V149.494H175.684C175.803 149.142 176.013 148.865 176.314 148.663C176.618 148.459 176.962 148.357 177.346 148.357C177.425 148.357 177.519 148.359 177.627 148.365C177.738 148.371 177.824 148.378 177.887 148.386V149.605C177.836 149.591 177.745 149.575 177.614 149.558C177.483 149.538 177.353 149.528 177.222 149.528C176.921 149.528 176.652 149.592 176.417 149.72C176.184 149.845 175.999 150.02 175.863 150.244C175.726 150.466 175.658 150.719 175.658 151.003V155H174.384ZM182.267 155V146.273H185.378C186.054 146.273 186.615 146.389 187.061 146.622C187.51 146.855 187.846 147.178 188.067 147.589C188.289 147.999 188.4 148.472 188.4 149.009C188.4 149.543 188.287 150.013 188.063 150.419C187.841 150.822 187.506 151.136 187.057 151.361C186.611 151.585 186.05 151.697 185.374 151.697H183.017V150.564H185.255C185.681 150.564 186.027 150.503 186.294 150.381C186.564 150.259 186.762 150.081 186.887 149.848C187.012 149.615 187.074 149.335 187.074 149.009C187.074 148.679 187.01 148.393 186.882 148.152C186.757 147.911 186.56 147.726 186.29 147.598C186.023 147.467 185.672 147.402 185.238 147.402H183.584V155H182.267ZM186.576 151.062L188.732 155H187.232L185.118 151.062H186.576ZM191.804 155.145C191.39 155.145 191.015 155.068 190.679 154.915C190.344 154.759 190.078 154.533 189.882 154.237C189.689 153.942 189.593 153.58 189.593 153.151C189.593 152.781 189.664 152.477 189.806 152.239C189.948 152 190.14 151.811 190.381 151.672C190.623 151.533 190.892 151.428 191.191 151.357C191.489 151.286 191.793 151.232 192.103 151.195C192.495 151.149 192.813 151.112 193.057 151.084C193.301 151.053 193.479 151.003 193.59 150.935C193.701 150.866 193.756 150.756 193.756 150.602V150.572C193.756 150.2 193.651 149.912 193.441 149.707C193.233 149.503 192.924 149.401 192.512 149.401C192.083 149.401 191.745 149.496 191.498 149.686C191.253 149.874 191.084 150.082 190.99 150.312L189.793 150.04C189.935 149.642 190.142 149.321 190.415 149.077C190.691 148.83 191.007 148.651 191.365 148.54C191.723 148.426 192.1 148.369 192.495 148.369C192.756 148.369 193.033 148.401 193.326 148.463C193.621 148.523 193.897 148.634 194.152 148.795C194.411 148.957 194.623 149.189 194.787 149.49C194.952 149.788 195.034 150.176 195.034 150.653V155H193.79V154.105H193.739C193.657 154.27 193.533 154.432 193.368 154.591C193.203 154.75 192.992 154.882 192.733 154.987C192.475 155.092 192.165 155.145 191.804 155.145ZM192.081 154.122C192.434 154.122 192.735 154.053 192.985 153.913C193.238 153.774 193.429 153.592 193.56 153.368C193.694 153.141 193.76 152.898 193.76 152.639V151.795C193.715 151.841 193.627 151.884 193.496 151.923C193.368 151.96 193.222 151.993 193.057 152.021C192.892 152.047 192.732 152.071 192.576 152.094C192.419 152.114 192.289 152.131 192.184 152.145C191.936 152.176 191.711 152.229 191.506 152.303C191.304 152.376 191.142 152.483 191.02 152.622C190.901 152.759 190.841 152.94 190.841 153.168C190.841 153.483 190.958 153.722 191.191 153.884C191.424 154.043 191.721 154.122 192.081 154.122ZM198.006 151.114V155H196.732V146.273H197.989V149.52H198.07C198.223 149.168 198.457 148.888 198.773 148.68C199.088 148.473 199.5 148.369 200.009 148.369C200.457 148.369 200.849 148.462 201.185 148.646C201.523 148.831 201.784 149.107 201.969 149.473C202.156 149.837 202.25 150.291 202.25 150.837V155H200.976V150.99C200.976 150.51 200.852 150.138 200.605 149.874C200.358 149.607 200.014 149.473 199.574 149.473C199.273 149.473 199.003 149.537 198.764 149.665C198.528 149.793 198.342 149.98 198.206 150.227C198.072 150.472 198.006 150.767 198.006 151.114ZM203.95 155V148.455H205.173V149.52H205.254C205.391 149.159 205.614 148.878 205.923 148.676C206.233 148.472 206.604 148.369 207.036 148.369C207.473 148.369 207.839 148.472 208.135 148.676C208.433 148.881 208.653 149.162 208.795 149.52H208.864C209.02 149.17 209.268 148.892 209.609 148.685C209.95 148.474 210.357 148.369 210.828 148.369C211.422 148.369 211.906 148.555 212.281 148.928C212.659 149.3 212.848 149.861 212.848 150.611V155H211.574V150.73C211.574 150.287 211.453 149.966 211.212 149.767C210.97 149.568 210.682 149.469 210.347 149.469C209.932 149.469 209.609 149.597 209.379 149.852C209.149 150.105 209.034 150.43 209.034 150.828V155H207.764V150.649C207.764 150.294 207.653 150.009 207.432 149.793C207.21 149.577 206.922 149.469 206.567 149.469C206.325 149.469 206.102 149.533 205.898 149.661C205.696 149.786 205.533 149.96 205.408 150.185C205.286 150.409 205.224 150.669 205.224 150.964V155H203.95ZM216.461 155.145C216.046 155.145 215.671 155.068 215.336 154.915C215 154.759 214.735 154.533 214.539 154.237C214.346 153.942 214.249 153.58 214.249 153.151C214.249 152.781 214.32 152.477 214.462 152.239C214.604 152 214.796 151.811 215.037 151.672C215.279 151.533 215.549 151.428 215.847 151.357C216.145 151.286 216.449 151.232 216.759 151.195C217.151 151.149 217.469 151.112 217.713 151.084C217.958 151.053 218.135 151.003 218.246 150.935C218.357 150.866 218.412 150.756 218.412 150.602V150.572C218.412 150.2 218.307 149.912 218.097 149.707C217.89 149.503 217.58 149.401 217.168 149.401C216.739 149.401 216.401 149.496 216.154 149.686C215.909 149.874 215.74 150.082 215.647 150.312L214.449 150.04C214.591 149.642 214.799 149.321 215.071 149.077C215.347 148.83 215.664 148.651 216.022 148.54C216.38 148.426 216.756 148.369 217.151 148.369C217.412 148.369 217.689 148.401 217.982 148.463C218.277 148.523 218.553 148.634 218.809 148.795C219.067 148.957 219.279 149.189 219.444 149.49C219.608 149.788 219.691 150.176 219.691 150.653V155H218.446V154.105H218.395C218.313 154.27 218.189 154.432 218.025 154.591C217.86 154.75 217.648 154.882 217.39 154.987C217.131 155.092 216.821 155.145 216.461 155.145ZM216.738 154.122C217.09 154.122 217.391 154.053 217.641 153.913C217.894 153.774 218.086 153.592 218.216 153.368C218.35 153.141 218.417 152.898 218.417 152.639V151.795C218.371 151.841 218.283 151.884 218.152 151.923C218.025 151.96 217.878 151.993 217.713 152.021C217.549 152.047 217.388 152.071 217.232 152.094C217.076 152.114 216.945 152.131 216.84 152.145C216.593 152.176 216.367 152.229 216.162 152.303C215.961 152.376 215.799 152.483 215.676 152.622C215.557 152.759 215.498 152.94 215.498 153.168C215.498 153.483 215.614 153.722 215.847 153.884C216.08 154.043 216.377 154.122 216.738 154.122ZM222.662 151.114V155H221.388V148.455H222.611V149.52H222.692C222.842 149.173 223.078 148.895 223.399 148.685C223.723 148.474 224.131 148.369 224.622 148.369C225.068 148.369 225.459 148.463 225.794 148.651C226.129 148.835 226.389 149.111 226.574 149.477C226.759 149.844 226.851 150.297 226.851 150.837V155H225.577V150.99C225.577 150.516 225.453 150.145 225.206 149.878C224.959 149.608 224.619 149.473 224.188 149.473C223.892 149.473 223.629 149.537 223.399 149.665C223.172 149.793 222.991 149.98 222.858 150.227C222.727 150.472 222.662 150.767 222.662 151.114Z" fill="white"/>
<path d="M44.5753 43.1293H43.0241C42.9645 42.7978 42.8535 42.5062 42.6911 42.2543C42.5286 42.0024 42.3298 41.7886 42.0945 41.6129C41.8591 41.4373 41.5956 41.3047 41.304 41.2152C41.0156 41.1257 40.709 41.081 40.3842 41.081C39.7976 41.081 39.2723 41.2285 38.8082 41.5234C38.3475 41.8184 37.983 42.2509 37.7145 42.821C37.4493 43.3911 37.3168 44.0871 37.3168 44.9091C37.3168 45.7377 37.4493 46.437 37.7145 47.0071C37.983 47.5772 38.3492 48.008 38.8132 48.2997C39.2772 48.5914 39.7992 48.7372 40.3793 48.7372C40.7008 48.7372 41.0057 48.6941 41.294 48.608C41.5857 48.5185 41.8492 48.3875 42.0845 48.2152C42.3198 48.0429 42.5187 47.8324 42.6811 47.5838C42.8468 47.3319 42.9612 47.0436 43.0241 46.7188L44.5753 46.7237C44.4924 47.2242 44.3317 47.6849 44.093 48.1058C43.8577 48.5234 43.5545 48.8847 43.1832 49.1896C42.8153 49.4912 42.3944 49.7249 41.9205 49.8906C41.4465 50.0563 40.9295 50.1392 40.3693 50.1392C39.4877 50.1392 38.7022 49.9304 38.0128 49.5128C37.3234 49.0919 36.7798 48.4903 36.3821 47.7081C35.9877 46.9259 35.7905 45.9929 35.7905 44.9091C35.7905 43.822 35.9893 42.889 36.3871 42.1101C36.7848 41.3279 37.3284 40.728 38.0178 40.3104C38.7071 39.8894 39.491 39.679 40.3693 39.679C40.9096 39.679 41.4134 39.7569 41.8807 39.9126C42.3513 40.0651 42.7739 40.2905 43.1484 40.5888C43.523 40.8838 43.8329 41.245 44.0781 41.6726C44.3234 42.0968 44.4891 42.5824 44.5753 43.1293ZM48.5165 50.169C48.0326 50.169 47.5951 50.0795 47.204 49.9006C46.8129 49.7183 46.503 49.4548 46.2743 49.1101C46.0489 48.7654 45.9363 48.3428 45.9363 47.8423C45.9363 47.4115 46.0191 47.0568 46.1848 46.7784C46.3506 46.5 46.5743 46.2796 46.856 46.1172C47.1377 45.9548 47.4526 45.8321 47.8006 45.7493C48.1486 45.6664 48.5033 45.6035 48.8645 45.5604C49.3219 45.5073 49.6931 45.4643 49.9782 45.4311C50.2632 45.3946 50.4703 45.3366 50.5996 45.2571C50.7289 45.1776 50.7935 45.0483 50.7935 44.8693V44.8345C50.7935 44.4003 50.6709 44.0639 50.4256 43.8253C50.1837 43.5866 49.8224 43.4673 49.3418 43.4673C48.8413 43.4673 48.4469 43.5784 48.1586 43.8004C47.8735 44.0192 47.6763 44.2628 47.5669 44.5312L46.1699 44.2131C46.3356 43.7491 46.5776 43.3745 46.8958 43.0895C47.2173 42.8011 47.5868 42.5923 48.0044 42.4631C48.4221 42.3305 48.8612 42.2642 49.3219 42.2642C49.6268 42.2642 49.95 42.3007 50.2914 42.3736C50.6361 42.4432 50.9576 42.5724 51.2559 42.7614C51.5575 42.9503 51.8044 43.2204 51.9966 43.5717C52.1889 43.9197 52.285 44.3722 52.285 44.929V50H50.8333V48.956H50.7736C50.6775 49.1482 50.5333 49.3371 50.3411 49.5227C50.1489 49.7083 49.9019 49.8625 49.6003 49.9851C49.2987 50.1077 48.9374 50.169 48.5165 50.169ZM48.8397 48.9759C49.2507 48.9759 49.602 48.8946 49.8936 48.7322C50.1886 48.5698 50.4123 48.3577 50.5648 48.0959C50.7206 47.8307 50.7985 47.5473 50.7985 47.2457V46.2614C50.7454 46.3144 50.6427 46.3641 50.4902 46.4105C50.3411 46.4536 50.1704 46.4917 49.9782 46.5249C49.7859 46.5547 49.5987 46.5829 49.4164 46.6094C49.2341 46.6326 49.0816 46.6525 48.959 46.669C48.6706 46.7055 48.4071 46.7668 48.1685 46.853C47.9332 46.9392 47.7443 47.0634 47.6017 47.2259C47.4625 47.3849 47.3929 47.5971 47.3929 47.8622C47.3929 48.2301 47.5288 48.5085 47.8006 48.6974C48.0724 48.883 48.4187 48.9759 48.8397 48.9759ZM54.2649 50V42.3636H55.7017V43.5767H55.7812C55.9205 43.1657 56.1657 42.8426 56.517 42.6072C56.8717 42.3686 57.2727 42.2493 57.7202 42.2493C57.813 42.2493 57.9223 42.2526 58.0483 42.2592C58.1776 42.2659 58.2786 42.2741 58.3516 42.2841V43.706C58.2919 43.6894 58.1858 43.6712 58.0334 43.6513C57.8809 43.6281 57.7285 43.6165 57.576 43.6165C57.2247 43.6165 56.9115 43.6911 56.6364 43.8402C56.3646 43.986 56.1491 44.1899 55.9901 44.4517C55.831 44.7102 55.7514 45.0052 55.7514 45.3366V50H54.2649ZM62.2232 50.1491C61.6067 50.1491 61.0565 49.9917 60.5726 49.6768C60.092 49.3587 59.7142 48.9062 59.4391 48.3196C59.1673 47.7296 59.0314 47.022 59.0314 46.1967C59.0314 45.3714 59.169 44.6655 59.4441 44.0788C59.7225 43.4922 60.1036 43.0431 60.5875 42.7315C61.0714 42.42 61.62 42.2642 62.2331 42.2642C62.7071 42.2642 63.0882 42.3438 63.3766 42.5028C63.6683 42.6586 63.8936 42.8409 64.0527 43.0497C64.2151 43.2585 64.3411 43.4425 64.4306 43.6016H64.5201V39.8182H66.0066V50H64.5549V48.8118H64.4306C64.3411 48.9742 64.2118 49.1598 64.0428 49.3686C63.8771 49.5774 63.6484 49.7597 63.3567 49.9155C63.065 50.0713 62.6872 50.1491 62.2232 50.1491ZM62.5513 48.8814C62.9789 48.8814 63.3401 48.7687 63.6351 48.5433C63.9334 48.3146 64.1588 47.9981 64.3113 47.5938C64.467 47.1894 64.5449 46.7187 64.5449 46.1818C64.5449 45.6515 64.4687 45.1875 64.3162 44.7898C64.1638 44.392 63.94 44.0821 63.6451 43.8601C63.3501 43.638 62.9855 43.527 62.5513 43.527C62.1039 43.527 61.731 43.643 61.4327 43.875C61.1344 44.107 60.909 44.4235 60.7566 44.8246C60.6074 45.2256 60.5328 45.678 60.5328 46.1818C60.5328 46.6922 60.6091 47.1513 60.7615 47.5589C60.914 47.9666 61.1394 48.2898 61.4377 48.5284C61.7393 48.7637 62.1105 48.8814 62.5513 48.8814ZM80.1706 39.8182V50H78.7587L73.5833 42.5327H73.4888V50H71.9526V39.8182H73.3745L78.5549 47.2955H78.6493V39.8182H80.1706ZM87.1296 46.8331V42.3636H88.6211V50H87.1594V48.6776H87.0799C86.9042 49.0852 86.6225 49.425 86.2347 49.6967C85.8503 49.9652 85.3713 50.0994 84.7979 50.0994C84.3074 50.0994 83.8732 49.9917 83.4954 49.7763C83.1209 49.5575 82.8259 49.2344 82.6104 48.8068C82.3983 48.3793 82.2923 47.8506 82.2923 47.2209V42.3636H83.7788V47.0419C83.7788 47.5623 83.9229 47.9766 84.2113 48.2848C84.4996 48.593 84.8742 48.7472 85.3349 48.7472C85.6133 48.7472 85.89 48.6776 86.1651 48.5384C86.4435 48.3991 86.6739 48.1887 86.8562 47.907C87.0418 47.6252 87.1329 47.2673 87.1296 46.8331ZM90.6184 50V42.3636H92.0453V43.6065H92.1397C92.2988 43.1856 92.559 42.8575 92.9203 42.6222C93.2815 42.3835 93.7141 42.2642 94.2179 42.2642C94.7283 42.2642 95.1558 42.3835 95.5005 42.6222C95.8485 42.8608 96.1054 43.1889 96.2711 43.6065H96.3507C96.533 43.1989 96.823 42.8741 97.2207 42.6321C97.6184 42.3868 98.0924 42.2642 98.6426 42.2642C99.3353 42.2642 99.9004 42.4813 100.338 42.9155C100.779 43.3497 100.999 44.0043 100.999 44.8793V50H99.5126V45.0185C99.5126 44.5014 99.3717 44.1269 99.09 43.8949C98.8083 43.6629 98.4719 43.5469 98.0808 43.5469C97.5969 43.5469 97.2207 43.696 96.9522 43.9943C96.6838 44.2893 96.5495 44.6688 96.5495 45.1328V50H95.068V44.924C95.068 44.5097 94.9387 44.1766 94.6802 43.9247C94.4217 43.6728 94.0853 43.5469 93.671 43.5469C93.3893 43.5469 93.1291 43.6214 92.8904 43.7706C92.6551 43.9164 92.4645 44.1203 92.3187 44.3821C92.1762 44.6439 92.1049 44.9472 92.1049 45.2919V50H90.6184ZM103.111 50V39.8182H104.597V43.6016H104.687C104.773 43.4425 104.897 43.2585 105.06 43.0497C105.222 42.8409 105.447 42.6586 105.736 42.5028C106.024 42.3438 106.405 42.2642 106.879 42.2642C107.496 42.2642 108.046 42.42 108.53 42.7315C109.014 43.0431 109.393 43.4922 109.668 44.0788C109.947 44.6655 110.086 45.3714 110.086 46.1967C110.086 47.022 109.948 47.7296 109.673 48.3196C109.398 48.9062 109.02 49.3587 108.54 49.6768C108.059 49.9917 107.511 50.1491 106.894 50.1491C106.43 50.1491 106.051 50.0713 105.756 49.9155C105.464 49.7597 105.235 49.5774 105.07 49.3686C104.904 49.1598 104.776 48.9742 104.687 48.8118H104.562V50H103.111ZM104.567 46.1818C104.567 46.7187 104.645 47.1894 104.801 47.5938C104.957 47.9981 105.182 48.3146 105.477 48.5433C105.772 48.7687 106.134 48.8814 106.561 48.8814C107.005 48.8814 107.376 48.7637 107.675 48.5284C107.973 48.2898 108.198 47.9666 108.351 47.5589C108.507 47.1513 108.585 46.6922 108.585 46.1818C108.585 45.678 108.508 45.2256 108.356 44.8246C108.207 44.4235 107.981 44.107 107.68 43.875C107.381 43.643 107.009 43.527 106.561 43.527C106.13 43.527 105.766 43.638 105.467 43.8601C105.172 44.0821 104.949 44.392 104.796 44.7898C104.644 45.1875 104.567 45.6515 104.567 46.1818ZM115.046 50.1541C114.294 50.1541 113.646 49.9934 113.102 49.6719C112.562 49.3471 112.145 48.8913 111.85 48.3047C111.558 47.7147 111.412 47.0237 111.412 46.2315C111.412 45.4493 111.558 44.7599 111.85 44.1634C112.145 43.5668 112.556 43.1011 113.083 42.7663C113.613 42.4316 114.233 42.2642 114.942 42.2642C115.373 42.2642 115.79 42.3355 116.195 42.478C116.599 42.6205 116.962 42.8442 117.284 43.1491C117.605 43.4541 117.859 43.8501 118.044 44.3374C118.23 44.8213 118.323 45.4096 118.323 46.1023V46.6293H112.252V45.5156H116.866C116.866 45.1245 116.786 44.7782 116.627 44.4766C116.468 44.1716 116.244 43.9313 115.956 43.7557C115.671 43.58 115.336 43.4922 114.952 43.4922C114.534 43.4922 114.17 43.5949 113.858 43.8004C113.55 44.0026 113.311 44.2678 113.142 44.5959C112.977 44.9207 112.894 45.2737 112.894 45.6548V46.5249C112.894 47.0353 112.983 47.4695 113.162 47.8274C113.344 48.1854 113.598 48.4588 113.923 48.6477C114.248 48.8333 114.627 48.9261 115.061 48.9261C115.343 48.9261 115.6 48.8864 115.832 48.8068C116.064 48.724 116.264 48.6013 116.433 48.4389C116.602 48.2765 116.732 48.076 116.821 47.8374L118.228 48.0909C118.115 48.5052 117.913 48.8681 117.622 49.1797C117.333 49.4879 116.97 49.7282 116.533 49.9006C116.099 50.0696 115.603 50.1541 115.046 50.1541ZM119.972 50V42.3636H121.409V43.5767H121.488C121.627 43.1657 121.873 42.8426 122.224 42.6072C122.579 42.3686 122.98 42.2493 123.427 42.2493C123.52 42.2493 123.629 42.2526 123.755 42.2592C123.885 42.2659 123.986 42.2741 124.059 42.2841V43.706C123.999 43.6894 123.893 43.6712 123.74 43.6513C123.588 43.6281 123.435 43.6165 123.283 43.6165C122.932 43.6165 122.618 43.6911 122.343 43.8402C122.072 43.986 121.856 44.1899 121.697 44.4517C121.538 44.7102 121.458 45.0052 121.458 45.3366V50H119.972Z" fill="white"/>
<path d="M38.7557 76.9091L38.8977 74.7102L37.0568 75.9432L36.2955 74.6023L38.2784 73.6364L36.2955 72.6705L37.0568 71.3295L38.8977 72.5625L38.7557 70.3636H40.2841L40.1364 72.5625L41.9773 71.3295L42.7386 72.6705L40.7614 73.6364L42.7386 74.6023L41.9773 75.9432L40.1364 74.7102L40.2841 76.9091H38.7557ZM47.7869 76.9091L47.929 74.7102L46.0881 75.9432L45.3267 74.6023L47.3097 73.6364L45.3267 72.6705L46.0881 71.3295L47.929 72.5625L47.7869 70.3636H49.3153L49.1676 72.5625L51.0085 71.3295L51.7699 72.6705L49.7926 73.6364L51.7699 74.6023L51.0085 75.9432L49.1676 74.7102L49.3153 76.9091H47.7869ZM56.8182 76.9091L56.9602 74.7102L55.1193 75.9432L54.358 74.6023L56.3409 73.6364L54.358 72.6705L55.1193 71.3295L56.9602 72.5625L56.8182 70.3636H58.3466L58.1989 72.5625L60.0398 71.3295L60.8011 72.6705L58.8239 73.6364L60.8011 74.6023L60.0398 75.9432L58.1989 74.7102L58.3466 76.9091H56.8182ZM65.8494 76.9091L65.9915 74.7102L64.1506 75.9432L63.3892 74.6023L65.3722 73.6364L63.3892 72.6705L64.1506 71.3295L65.9915 72.5625L65.8494 70.3636H67.3778L67.2301 72.5625L69.071 71.3295L69.8324 72.6705L67.8551 73.6364L69.8324 74.6023L69.071 75.9432L67.2301 74.7102L67.3778 76.9091H65.8494ZM82.2869 76.9091L82.429 74.7102L80.5881 75.9432L79.8267 74.6023L81.8097 73.6364L79.8267 72.6705L80.5881 71.3295L82.429 72.5625L82.2869 70.3636H83.8153L83.6676 72.5625L85.5085 71.3295L86.2699 72.6705L84.2926 73.6364L86.2699 74.6023L85.5085 75.9432L83.6676 74.7102L83.8153 76.9091H82.2869ZM91.3182 76.9091L91.4602 74.7102L89.6193 75.9432L88.858 74.6023L90.8409 73.6364L88.858 72.6705L89.6193 71.3295L91.4602 72.5625L91.3182 70.3636H92.8466L92.6989 72.5625L94.5398 71.3295L95.3011 72.6705L93.3239 73.6364L95.3011 74.6023L94.5398 75.9432L92.6989 74.7102L92.8466 76.9091H91.3182ZM100.349 76.9091L100.491 74.7102L98.6506 75.9432L97.8892 74.6023L99.8722 73.6364L97.8892 72.6705L98.6506 71.3295L100.491 72.5625L100.349 70.3636H101.878L101.73 72.5625L103.571 71.3295L104.332 72.6705L102.355 73.6364L104.332 74.6023L103.571 75.9432L101.73 74.7102L101.878 76.9091H100.349ZM109.381 76.9091L109.523 74.7102L107.682 75.9432L106.92 74.6023L108.903 73.6364L106.92 72.6705L107.682 71.3295L109.523 72.5625L109.381 70.3636H110.909L110.761 72.5625L112.602 71.3295L113.364 72.6705L111.386 73.6364L113.364 74.6023L112.602 75.9432L110.761 74.7102L110.909 76.9091H109.381ZM125.818 76.9091L125.96 74.7102L124.119 75.9432L123.358 74.6023L125.341 73.6364L123.358 72.6705L124.119 71.3295L125.96 72.5625L125.818 70.3636H127.347L127.199 72.5625L129.04 71.3295L129.801 72.6705L127.824 73.6364L129.801 74.6023L129.04 75.9432L127.199 74.7102L127.347 76.9091H125.818ZM134.849 76.9091L134.991 74.7102L133.151 75.9432L132.389 74.6023L134.372 73.6364L132.389 72.6705L133.151 71.3295L134.991 72.5625L134.849 70.3636H136.378L136.23 72.5625L138.071 71.3295L138.832 72.6705L136.855 73.6364L138.832 74.6023L138.071 75.9432L136.23 74.7102L136.378 76.9091H134.849ZM143.881 76.9091L144.023 74.7102L142.182 75.9432L141.42 74.6023L143.403 73.6364L141.42 72.6705L142.182 71.3295L144.023 72.5625L143.881 70.3636H145.409L145.261 72.5625L147.102 71.3295L147.864 72.6705L145.886 73.6364L147.864 74.6023L147.102 75.9432L145.261 74.7102L145.409 76.9091H143.881ZM152.912 76.9091L153.054 74.7102L151.213 75.9432L150.452 74.6023L152.435 73.6364L150.452 72.6705L151.213 71.3295L153.054 72.5625L152.912 70.3636H154.44L154.293 72.5625L156.134 71.3295L156.895 72.6705L154.918 73.6364L156.895 74.6023L156.134 75.9432L154.293 74.7102L154.44 76.9091H152.912Z" fill="white"/>
<path d="M170.14 78L174.06 70.2443V70.1797H169.494V68.5455H176.128V70.2028L172.204 78H170.14ZM180.923 78.1293C180.437 78.1262 179.968 78.0446 179.515 77.8846C179.066 77.7246 178.663 77.4645 178.306 77.1044C177.949 76.7443 177.666 76.2673 177.456 75.6733C177.25 75.0793 177.147 74.3499 177.147 73.4851C177.15 72.6911 177.241 71.9817 177.419 71.3569C177.601 70.729 177.859 70.1966 178.195 69.7596C178.533 69.3226 178.938 68.9902 179.409 68.7624C179.88 68.5316 180.408 68.4162 180.992 68.4162C181.623 68.4162 182.18 68.5393 182.664 68.7855C183.147 69.0286 183.535 69.3595 183.827 69.7781C184.122 70.1966 184.301 70.666 184.362 71.1861H182.391C182.314 70.8568 182.153 70.5982 181.907 70.4105C181.66 70.2228 181.356 70.1289 180.992 70.1289C180.377 70.1289 179.909 70.3967 179.589 70.9322C179.272 71.4677 179.11 72.1955 179.104 73.1158H179.169C179.311 72.8357 179.501 72.5972 179.741 72.4002C179.985 72.2002 180.26 72.0478 180.568 71.9432C180.879 71.8355 181.206 71.7816 181.551 71.7816C182.111 71.7816 182.61 71.9139 183.047 72.1786C183.484 72.4402 183.829 72.8003 184.081 73.2589C184.333 73.7174 184.459 74.2422 184.459 74.8331C184.459 75.4732 184.31 76.0426 184.012 76.5412C183.716 77.0398 183.302 77.4306 182.77 77.7138C182.24 77.9938 181.625 78.1323 180.923 78.1293ZM180.914 76.5597C181.222 76.5597 181.497 76.4858 181.74 76.3381C181.983 76.1903 182.174 75.9903 182.313 75.7379C182.451 75.4856 182.521 75.2024 182.521 74.8885C182.521 74.5746 182.451 74.293 182.313 74.0437C182.177 73.7944 181.99 73.5959 181.75 73.4482C181.509 73.3004 181.236 73.2266 180.928 73.2266C180.697 73.2266 180.483 73.2696 180.286 73.3558C180.092 73.442 179.921 73.562 179.774 73.7159C179.629 73.8698 179.515 74.0483 179.432 74.2514C179.349 74.4515 179.307 74.6654 179.307 74.8931C179.307 75.1978 179.377 75.4763 179.515 75.7287C179.657 75.9811 179.848 76.1826 180.088 76.3335C180.331 76.4843 180.606 76.5597 180.914 76.5597ZM189.99 68.5455V78H187.991V70.4428H187.936L185.771 71.8001V70.0273L188.111 68.5455H189.99ZM195.866 78.1293C195.379 78.1262 194.91 78.0446 194.458 77.8846C194.008 77.7246 193.605 77.4645 193.248 77.1044C192.891 76.7443 192.608 76.2673 192.399 75.6733C192.192 75.0793 192.089 74.3499 192.089 73.4851C192.092 72.6911 192.183 71.9817 192.362 71.3569C192.543 70.729 192.802 70.1966 193.137 69.7596C193.476 69.3226 193.881 68.9902 194.351 68.7624C194.822 68.5316 195.35 68.4162 195.935 68.4162C196.566 68.4162 197.123 68.5393 197.606 68.7855C198.089 69.0286 198.477 69.3595 198.769 69.7781C199.065 70.1966 199.243 70.666 199.305 71.1861H197.334C197.257 70.8568 197.095 70.5982 196.849 70.4105C196.603 70.2228 196.298 70.1289 195.935 70.1289C195.319 70.1289 194.852 70.3967 194.531 70.9322C194.214 71.4677 194.053 72.1955 194.047 73.1158H194.111C194.253 72.8357 194.444 72.5972 194.684 72.4002C194.927 72.2002 195.202 72.0478 195.51 71.9432C195.821 71.8355 196.149 71.7816 196.493 71.7816C197.054 71.7816 197.552 71.9139 197.989 72.1786C198.426 72.4402 198.771 72.8003 199.023 73.2589C199.276 73.7174 199.402 74.2422 199.402 74.8331C199.402 75.4732 199.253 76.0426 198.954 76.5412C198.659 77.0398 198.245 77.4306 197.712 77.7138C197.183 77.9938 196.567 78.1323 195.866 78.1293ZM195.856 76.5597C196.164 76.5597 196.44 76.4858 196.683 76.3381C196.926 76.1903 197.117 75.9903 197.255 75.7379C197.394 75.4856 197.463 75.2024 197.463 74.8885C197.463 74.5746 197.394 74.293 197.255 74.0437C197.12 73.7944 196.932 73.5959 196.692 73.4482C196.452 73.3004 196.178 73.2266 195.87 73.2266C195.639 73.2266 195.425 73.2696 195.229 73.3558C195.035 73.442 194.864 73.562 194.716 73.7159C194.571 73.8698 194.458 74.0483 194.374 74.2514C194.291 74.4515 194.25 74.6654 194.25 74.8931C194.25 75.1978 194.319 75.4763 194.458 75.7287C194.599 75.9811 194.79 76.1826 195.03 76.3335C195.273 76.4843 195.549 76.5597 195.856 76.5597Z" fill="white"/>
</svg>
