<svg width="65" height="20" viewBox="0 0 65 20" fill="none" xmlns="http://www.w3.org/2000/svg">
<g clip-path="url(#clip0_1755_329)">
<path d="M64.6828 0.00390625V14.2783H0V0.00390625H64.6828Z" fill="#FFCC00"/>
<path d="M11.3752 2.56641L9.30859 5.37402H20.5716C21.1409 5.37402 21.1334 5.59035 20.8551 5.96731C20.5725 6.34998 20.0996 7.01549 19.8117 7.40421C19.6657 7.60148 19.4016 7.96087 20.2768 7.96087H24.8827C24.8827 7.96087 25.6251 6.95069 26.2472 6.10605C27.0939 4.95724 26.3207 2.56652 23.2941 2.56652L11.3752 2.56641Z" fill="#D2002E"/>
<path d="M8.47238 11.7133L12.6232 6.0733H17.7741C18.3434 6.0733 18.336 6.28963 18.0577 6.66659C17.7751 7.04926 17.2945 7.7077 17.0066 8.09641C16.8604 8.29368 16.5964 8.65365 17.4715 8.65365H24.3722C23.7983 9.43987 21.9367 11.7132 18.5941 11.7132L8.47238 11.7133ZM32.2444 8.65296L29.9934 11.7131H24.0558C24.0558 11.7131 26.3055 8.65365 26.3074 8.65365L32.2444 8.65296ZM41.3406 7.96087H26.8175L30.789 2.56641H36.725L34.4486 5.6596H37.0982L39.3755 2.56641H45.3108L41.3406 7.96087ZM40.8309 8.65376L38.5789 11.7133H32.6434C32.6434 11.7133 34.8931 8.65376 34.895 8.65376H40.8309ZM0 9.86019H8.74734L8.26952 10.5102H0V9.86019ZM0 8.65376H9.63602L9.15728 9.30284H0V8.65376ZM0 11.0673H7.85912L7.38358 11.7133H0V11.0673ZM64.6831 10.5102H55.9694L56.4477 9.8603H64.6831V10.5102ZM64.6831 11.7133L55.0836 11.7142L55.5591 11.0673H64.6831V11.7133ZM57.3352 8.65376H64.6831V9.30318L56.8574 9.30375L57.3352 8.65376ZM53.5313 2.56641L49.5605 7.96076H43.2706C43.2706 7.96076 47.2425 2.56641 47.2445 2.56641H53.5313ZM42.7617 8.65376C42.7617 8.65376 42.3278 9.24671 42.1172 9.53171C41.3716 10.5394 42.0307 11.7133 44.4637 11.7133H53.9966L56.2484 8.65376H42.7617Z" fill="#D2002E"/>
<path d="M0 16.5977H64.6831V16.921H0V16.5977ZM0 18.1065H64.6831V18.4299H0V18.1065ZM0 19.6151H64.6831V19.9384H0V19.6151Z" fill="#FFCC00"/>
<path d="M21.7202 19.9391H23.6669L23.9776 19.5179H22.5289L23.3413 18.4172H24.6605L24.9713 17.9959H23.6521L24.3724 17.0198H25.8212L26.132 16.5985H24.1854L21.7202 19.9391ZM24.1092 19.9391H24.7066L26.7429 18.5225L26.7229 19.9391H27.3502L27.3549 18.1923L29.7009 16.5985H29.1333L27.2659 17.8812L27.2863 16.5985H26.6889L26.6707 18.2019L24.1092 19.9391ZM30.4544 17.0198H30.8776C31.1864 17.0198 31.5313 17.1729 31.2205 17.594C30.8955 18.0342 30.3977 18.1826 30.089 18.1826H29.5961L30.4544 17.0198ZM27.8022 19.9391H28.3L29.2853 18.6038H29.7732C30.4005 18.6038 31.1971 18.3406 31.7445 17.5987C32.3061 16.8377 31.8902 16.5983 31.1784 16.5983H30.2673L27.8022 19.9391ZM30.6691 19.9391H31.167L32.2618 18.4554H32.5604C32.8242 18.4554 32.9887 18.4554 32.9029 18.7808L32.5809 19.9391H33.1485L33.4733 18.6085C33.5156 18.4028 33.494 18.331 33.3819 18.2734L33.3889 18.2638C33.8418 18.1967 34.3672 17.9097 34.6675 17.5028C35.2572 16.7037 34.6728 16.5983 33.9856 16.5983H33.1344L30.6691 19.9391ZM33.3214 17.0198H33.7992C34.2574 17.0198 34.355 17.2112 34.1326 17.5125C33.896 17.8334 33.4688 18.0342 32.9958 18.0342H32.5726L33.3214 17.0198ZM33.664 19.9391H35.6107L35.9212 19.5179H34.4727L35.2849 18.4172H36.6043L36.9149 17.9959H35.5957L36.3161 17.0198H37.7649L38.0758 16.5985H36.1292L33.664 19.9391ZM40.4737 16.6607C40.2948 16.5794 40.049 16.541 39.8201 16.541C39.1928 16.541 38.4718 16.8571 38.0338 17.4505C37.2674 18.4891 38.9129 18.2832 38.3618 19.0299C38.0723 19.4221 37.5609 19.5755 37.2773 19.5755C37.0232 19.5755 36.7952 19.4796 36.6754 19.4125L36.2973 19.8577C36.4733 19.9295 36.663 19.9966 36.9069 19.9966C37.6038 19.9966 38.3848 19.7138 38.911 19.0008C39.7232 17.9002 38.1201 18.0483 38.5934 17.4072C38.8514 17.0579 39.2506 16.9621 39.5294 16.9621C39.7883 16.9621 39.8957 17.0054 40.0789 17.101L40.4737 16.6607ZM42.963 16.6607C42.7841 16.5794 42.5385 16.541 42.3094 16.541C41.6821 16.541 40.9611 16.8571 40.5231 17.4505C39.7567 18.4891 41.4022 18.2832 40.8511 19.0299C40.5617 19.4221 40.0502 19.5755 39.7666 19.5755C39.5125 19.5755 39.2844 19.4796 39.1648 19.4125L38.7866 19.8577C38.9626 19.9295 39.1523 19.9966 39.3961 19.9966C40.0931 19.9966 40.8739 19.7138 41.4001 19.0008C42.2125 17.9002 40.6095 18.0483 41.0827 17.4072C41.3406 17.0579 41.7399 16.9621 42.0187 16.9621C42.2776 16.9621 42.3852 17.0054 42.5682 17.101L42.963 16.6607Z" fill="#D2002E"/>
</g>
<defs>
<clipPath id="clip0_1755_329">
<rect width="64.6831" height="20" fill="white"/>
</clipPath>
</defs>
</svg>
