<svg width="65" height="18" viewBox="0 0 65 18" fill="none" xmlns="http://www.w3.org/2000/svg">
<g clip-path="url(#clip0_1755_277)">
<path d="M64.5354 15.6595C64.5354 14.6591 63.826 13.9265 62.8488 13.9265C61.8731 13.9265 61.1629 14.6591 61.1629 15.6595C61.1629 16.6582 61.8731 17.3895 62.8488 17.3895C63.826 17.3895 64.5354 16.657 64.5354 15.6595ZM62.4056 15.7483V16.8802H62.0399V14.3843H62.9486C63.481 14.3843 63.7254 14.6169 63.7254 15.0702C63.7254 15.3494 63.5366 15.5706 63.2935 15.6026V15.6132C63.5046 15.6469 63.5821 15.8352 63.6255 16.1797C63.6588 16.403 63.703 16.7901 63.7826 16.881H63.35C63.2493 16.6465 63.2595 16.3145 63.1819 16.0365C63.1178 15.825 63.005 15.7479 62.7627 15.7479H62.4076V15.7491L62.4056 15.7483ZM62.8589 15.4257C63.214 15.4257 63.3155 15.2366 63.3155 15.0698C63.3155 14.8725 63.214 14.7167 62.8589 14.7167H62.4056V15.4265H62.8589V15.4257ZM60.7607 15.6595C60.7607 14.4269 61.7392 13.5938 62.8471 13.5938C63.9583 13.5938 64.9355 14.4269 64.9355 15.6595C64.9355 16.8895 63.9587 17.7235 62.8471 17.7235C61.7392 17.7235 60.7607 16.8895 60.7607 15.6595Z" fill="#FF5A00"/>
<path d="M53.5299 17.3627L51.1245 14.6651L48.7402 17.3627H43.7232L48.6266 11.8539L43.7232 6.34348H48.8968L51.3266 9.02037L53.6646 6.34348H58.6572L53.7782 11.8308L58.725 17.3627H53.5299ZM34.0895 17.3627V0.00390625H43.7232V3.87315H38.1702V6.34348H43.7232V10.0666H38.1702V13.4838H43.7232V17.3627H34.0895Z" fill="#FF5A00"/>
<path d="M30.0238 0.00390625V7.10808H29.9788C29.079 6.074 27.9544 5.71362 26.6505 5.71362C23.9785 5.71362 21.9655 7.53136 21.2589 9.9327C20.453 7.28624 18.3747 5.66411 15.2936 5.66411C12.7908 5.66411 10.8151 6.78706 9.7831 8.61738V6.34307H4.61071V3.87356H10.2559V0.00471903H0V17.3628H4.61071V10.0666H9.20641C9.06485 10.6277 8.99408 11.2043 8.99578 11.7829C8.99578 15.4022 11.7616 17.9455 15.2927 17.9455C18.261 17.9455 20.2188 16.5507 21.2533 14.0114H17.3016C16.7676 14.7755 16.3617 15.0012 15.2931 15.0012C14.0545 15.0012 12.9856 13.92 12.9856 12.64H21.0317C21.3807 15.5154 23.6209 17.9946 26.6955 17.9946C28.0218 17.9946 29.2361 17.3425 29.9783 16.2406H30.023V17.3652H34.0883V0.00471903H30.0238V0.00390625ZM13.1138 10.1186C13.3707 9.01551 14.2258 8.29474 15.2931 8.29474C16.4684 8.29474 17.2801 8.99319 17.4932 10.1186H13.1138ZM27.5567 14.7212C26.0588 14.7212 25.1278 13.3255 25.1278 11.8677C25.1278 10.3093 25.9378 8.81218 27.5567 8.81218C29.2365 8.81218 29.9057 10.3101 29.9057 11.8677C29.9057 13.3442 29.1971 14.7212 27.5567 14.7212Z" fill="#29007C"/>
</g>
<defs>
<clipPath id="clip0_1755_277">
<rect width="64.9351" height="18" fill="white"/>
</clipPath>
</defs>
</svg>
