<svg width="138" height="30" viewBox="0 0 138 30" fill="none" xmlns="http://www.w3.org/2000/svg">
<path d="M58.1169 25.0489V17.2913C58.1169 14.5968 58.0873 12.5538 57.88 11.2509L63.3577 25.0489H66.8516L72.359 11.2213C72.1517 12.761 72.1517 14.0342 72.1517 18.3868V25.0489H75.8233V3.40445H72.0925L65.1047 20.6371L58.1169 3.40445H54.4453V25.0489H58.1169Z" fill="#0D0F20"/>
<path d="M86.6245 25.4338C90.4441 25.4338 93.1089 23.5092 93.7307 20.3114H90.3849C89.9703 21.7031 88.6675 22.4729 86.6837 22.4729C84.2853 22.4729 82.9233 21.1701 82.6568 18.5941L93.6715 18.5645V17.4689C93.6715 12.9091 90.8882 9.97774 86.506 9.97774C82.2127 9.97774 79.2221 13.1459 79.2221 17.7354C79.2221 22.2656 82.2719 25.4338 86.6245 25.4338ZM86.5356 12.9387C88.6971 12.9387 90.0888 14.2711 90.0888 16.2845H82.7456C83.1009 14.0934 84.4038 12.9387 86.5356 12.9387Z" fill="#0D0F20"/>
<path d="M105.741 10.3627C105.149 10.2146 104.646 10.1554 104.143 10.1554C102.188 10.1554 100.797 11.1325 100.175 12.5834L99.9677 10.4515H96.5626V25.0489H100.175V17.9427C100.175 15.1002 101.803 13.7085 104.409 13.7085H105.741V10.3627Z" fill="#0D0F20"/>
<path d="M106.836 17.7058C106.836 22.3545 109.738 25.4338 114.179 25.4338C117.999 25.4338 120.842 23.0947 121.286 19.6896H117.644C117.259 21.2885 115.986 22.1768 114.179 22.1768C111.87 22.1768 110.449 20.4595 110.449 17.7058C110.449 14.9521 111.988 13.2052 114.298 13.2052C116.015 13.2052 117.229 14.0638 117.644 15.722H121.256C120.871 12.1984 118.147 9.97774 114.15 9.97774C109.827 9.97774 106.836 13.1756 106.836 17.7058Z" fill="#0D0F20"/>
<path d="M127.587 25.0489V17.0544C127.587 14.8633 128.919 13.2644 131.199 13.2644C133.035 13.2644 134.249 14.4488 134.249 16.9063V25.0489H137.861V16.0477C137.861 12.2577 135.966 9.97774 132.354 9.97774C130.252 9.97774 128.534 10.8956 127.616 12.3169V3.01953H123.974V25.0489H127.587Z" fill="#0D0F20"/>
<path d="M3.05174 4.71699L0.00685866 29.1015C-0.09265 29.8984 0.915468 30.3257 1.41895 29.7L12.0437 16.4969L25.2825 29.7495L33.7362 21.6004C35.4432 19.9549 35.5155 17.2427 33.8985 15.5084C32.2235 13.7119 29.3945 13.6631 27.6587 15.4007L24.4284 18.6344L8.8824 2.74792C6.88149 0.703192 3.40639 1.87676 3.05174 4.71699Z" fill="#3056D3"/>
<path d="M37.263 2.99993L40.3088 27.3914C40.4083 28.1883 39.4002 28.6157 38.8967 27.99L28.2719 14.7868L13.3249 29.7495L5.21776 21.0096C3.59982 19.2654 3.80324 16.5126 5.65996 15.0256C7.33292 13.6859 9.75513 13.8652 11.213 15.4368L14.179 18.6344L31.4342 1.02894C33.4359 -1.01333 36.9085 0.160939 37.263 2.99993Z" fill="#97ACEF"/>
<path d="M27.6587 15.4007L24.4284 18.6344L25.2825 29.7495L33.7362 21.6004C35.4432 19.9549 35.5155 17.2427 33.8985 15.5084C32.2235 13.7119 29.3945 13.6631 27.6587 15.4007Z" fill="#3056D3"/>
</svg>
