<svg width="21" height="14" viewBox="0 0 21 14" fill="none" xmlns="http://www.w3.org/2000/svg">
<g clip-path="url(#clip0_3046_2297)">
<path d="M18.4774 0.412109H1.55556C0.696446 0.412109 0 1.10856 0 1.96767V12.1899C0 13.049 0.696446 13.7455 1.55556 13.7455H18.4774C19.3365 13.7455 20.033 13.049 20.033 12.1899V1.96767C20.033 1.10856 19.3365 0.412109 18.4774 0.412109Z" fill="white"/>
<mask id="mask0_3046_2297" style="mask-type:alpha" maskUnits="userSpaceOnUse" x="0" y="0" width="21" height="14">
<path d="M18.4774 0.412109H1.55556C0.696446 0.412109 0 1.10856 0 1.96767V12.1899C0 13.049 0.696446 13.7455 1.55556 13.7455H18.4774C19.3365 13.7455 20.033 13.049 20.033 12.1899V1.96767C20.033 1.10856 19.3365 0.412109 18.4774 0.412109Z" fill="white"/>
</mask>
<g mask="url(#mask0_3046_2297)">
<path d="M20.033 0.412109H0V13.7455H20.033V0.412109Z" fill="#0A17A7"/>
<path d="M-0.73999 0.152683H5.37038e-05H0.477031H0.55542L0.620678 0.196117L3.89426 2.3749H4.69983L8.45512 0.187906L8.84486 -0.0390625V0.411943V0.717509C8.84486 0.891021 8.75814 1.05302 8.61363 1.14916L8.47005 0.933332L8.61363 1.14917L5.50605 3.21749V3.84277L8.4104 6.16243C8.71365 6.40461 8.54239 6.89343 8.15435 6.89343C8.07347 6.89343 7.99437 6.86951 7.92701 6.82468M-0.73999 0.152683L7.92701 6.82468L-0.73999 0.152683ZM-0.73999 0.152683L-0.161741 0.614521L3.07963 3.20335V3.82862L-0.143593 5.97389L-0.259205 6.05085V6.18972V6.63416V7.08517L0.130526 6.8582L3.88586 4.6712H4.69143L7.92701 6.82468M-0.73999 0.152683L8.07059 6.60885L7.92701 6.82468" fill="#FF2E3B"/>
<path d="M-0.73999 0.152683H5.37069e-05H0.477031H0.55542L0.620678 0.196117L3.89426 2.3749H4.69983L8.45512 0.187906L8.84487 -0.0390625V0.411943V0.717509C8.84487 0.891021 8.75814 1.05302 8.61363 1.14916L8.47005 0.933332L8.61363 1.14917L5.50605 3.21749V3.84277L8.4104 6.16243C8.71365 6.40461 8.54239 6.89343 8.15435 6.89343C8.07347 6.89343 7.99437 6.86951 7.92701 6.82468M-0.73999 0.152683L7.92701 6.82468M-0.73999 0.152683L-0.161741 0.614521L3.07963 3.20335V3.82862L-0.143593 5.97389L-0.259205 6.05085V6.18973V6.63416V7.08517L0.130526 6.8582L3.88586 4.6712H4.69143L7.92701 6.82468M-0.73999 0.152683L8.07059 6.60885L7.92701 6.82468" stroke="white" stroke-width="0.666667"/>
<path fill-rule="evenodd" clip-rule="evenodd" d="M0 2.63433V4.41211H3.33884V6.56026C3.33884 6.84663 3.57099 7.07877 3.85736 7.07877H4.72822C5.01459 7.07877 5.24674 6.84663 5.24674 6.56026V4.41211H8.54404C8.83042 4.41211 9.06259 4.17996 9.06259 3.89359V3.15285C9.06259 2.86648 8.83042 2.63433 8.54404 2.63433H5.24674V0.412109H3.33884V2.63433H0Z" fill="url(#paint0_linear_3046_2297)"/>
<path fill-rule="evenodd" clip-rule="evenodd" d="M0 3.07877H3.81581V2.63434V0.412109H4.76977V2.63434V3.07877H8.58558V3.96766H4.76977V4.41211V6.63433H3.81581V4.41211V3.96766H0V3.07877Z" fill="url(#paint1_linear_3046_2297)"/>
<path fill-rule="evenodd" clip-rule="evenodd" d="M4.2929 11.3008L3.45183 11.7128L3.61245 10.8402L2.93201 10.2221L3.87236 10.0948L4.2929 9.30078L4.71344 10.0948L5.6538 10.2221L4.97335 10.8402L5.13398 11.7128L4.2929 11.3008Z" fill="white"/>
<path fill-rule="evenodd" clip-rule="evenodd" d="M14.3096 11.9676L13.635 12.1517L13.8326 11.5231L13.635 10.8945L14.3096 11.0786L14.9841 10.8945L14.7866 11.5231L14.9841 12.1517L14.3096 11.9676Z" fill="white"/>
<path fill-rule="evenodd" clip-rule="evenodd" d="M14.3096 3.5222L13.635 3.7063L13.8326 3.07776L13.635 2.44922L14.3096 2.63332L14.9841 2.44922L14.7866 3.07776L14.9841 3.7063L14.3096 3.5222Z" fill="white"/>
<path fill-rule="evenodd" clip-rule="evenodd" d="M17.1711 6.19017L16.4966 6.37427L16.6941 5.74573L16.4966 5.11719L17.1711 5.30129L17.8457 5.11719L17.6482 5.74573L17.8457 6.37427L17.1711 6.19017Z" fill="white"/>
<path fill-rule="evenodd" clip-rule="evenodd" d="M11.4475 7.07884L10.7729 7.26293L10.9706 6.6344L10.7729 6.00586L11.4475 6.18995L12.1221 6.00586L11.9245 6.6344L12.1221 7.26293L11.4475 7.07884Z" fill="white"/>
<path fill-rule="evenodd" clip-rule="evenodd" d="M15.7402 8.18882L15.4028 8.28091L15.5017 7.96661L15.4028 7.65234L15.7402 7.74439L16.0774 7.65234L15.9786 7.96661L16.0774 8.28091L15.7402 8.18882Z" fill="white"/>
</g>
</g>
<defs>
<linearGradient id="paint0_linear_3046_2297" x1="0" y1="0.412109" x2="0" y2="7.07877" gradientUnits="userSpaceOnUse">
<stop stop-color="white"/>
<stop offset="1" stop-color="#F0F0F0"/>
</linearGradient>
<linearGradient id="paint1_linear_3046_2297" x1="0" y1="0.412109" x2="0" y2="6.63433" gradientUnits="userSpaceOnUse">
<stop stop-color="#FF2E3B"/>
<stop offset="1" stop-color="#FC0D1B"/>
</linearGradient>
<clipPath id="clip0_3046_2297">
<rect width="20.2222" height="14" fill="white"/>
</clipPath>
</defs>
</svg>
