<svg width="21" height="14" viewBox="0 0 21 14" fill="none" xmlns="http://www.w3.org/2000/svg">
<g clip-path="url(#clip0_3046_2254)">
<path d="M18.4774 0.605469H1.55557C0.803848 0.605469 0.194458 1.21486 0.194458 1.96658V12.1888C0.194458 12.9406 0.803848 13.5499 1.55557 13.5499H18.4774C19.2292 13.5499 19.8386 12.9406 19.8386 12.1888V1.96658C19.8386 1.21486 19.2292 0.605469 18.4774 0.605469Z" fill="white" stroke="#F3F4F6" stroke-width="0.5"/>
<mask id="mask0_3046_2254" style="mask-type:alpha" maskUnits="userSpaceOnUse" x="-1" y="0" width="22" height="14">
<path d="M18.4774 0.605469H1.55557C0.803848 0.605469 0.194458 1.21486 0.194458 1.96658V12.1888C0.194458 12.9406 0.803848 13.5499 1.55557 13.5499H18.4774C19.2292 13.5499 19.8386 12.9406 19.8386 12.1888V1.96658C19.8386 1.21486 19.2292 0.605469 18.4774 0.605469Z" fill="white" stroke="white" stroke-width="0.5"/>
</mask>
<g mask="url(#mask0_3046_2254)">
<path d="M20.0329 0.412109H14.3092V13.7455H20.0329V0.412109Z" fill="#FF3131"/>
<path fill-rule="evenodd" clip-rule="evenodd" d="M0 13.7454H5.72372V0.412109H0V13.7454Z" fill="#FF3131"/>
<path fill-rule="evenodd" clip-rule="evenodd" d="M11.5737 6.51578C11.3881 6.68872 11.0902 6.51973 11.1434 6.27169L11.4474 4.85569L10.4934 5.30013L10.0164 3.9668L9.53948 5.30013L8.58554 4.85569L8.88942 6.27169C8.9427 6.51973 8.64481 6.68872 8.45923 6.51578L8.28532 6.35371C8.18568 6.26093 8.03137 6.26093 7.93182 6.35371L7.63156 6.63346L6.67761 6.18902L7.15458 7.07791L6.88117 7.33268C6.77115 7.4352 6.77115 7.60951 6.88117 7.71203L8.10853 8.85572H9.53948L9.77795 10.189H10.255L10.4934 8.85572H11.9244L13.1517 7.71203C13.2618 7.60951 13.2618 7.4352 13.1517 7.33268L12.8783 7.07791L13.3553 6.18902L12.4013 6.63346L12.1011 6.35371C12.0015 6.26093 11.8472 6.26093 11.7476 6.35371L11.5737 6.51578Z" fill="#FF3131"/>
</g>
</g>
<defs>
<clipPath id="clip0_3046_2254">
<rect width="20.2222" height="14" fill="white"/>
</clipPath>
</defs>
</svg>
