<svg width="21" height="14" viewBox="0 0 21 14" fill="none" xmlns="http://www.w3.org/2000/svg">
<g clip-path="url(#clip0_3046_2319)">
<path d="M18.4774 0.605469H1.55557C0.803848 0.605469 0.194458 1.21486 0.194458 1.96658V12.1888C0.194458 12.9406 0.803848 13.5499 1.55557 13.5499H18.4774C19.2292 13.5499 19.8386 12.9406 19.8386 12.1888V1.96658C19.8386 1.21486 19.2292 0.605469 18.4774 0.605469Z" fill="white" stroke="#F3F4F6" stroke-width="0.5"/>
<mask id="mask0_3046_2319" style="mask-type:alpha" maskUnits="userSpaceOnUse" x="-1" y="0" width="22" height="14">
<path d="M18.4774 0.605469H1.55557C0.803848 0.605469 0.194458 1.21486 0.194458 1.96658V12.1888C0.194458 12.9406 0.803848 13.5499 1.55557 13.5499H18.4774C19.2292 13.5499 19.8386 12.9406 19.8386 12.1888V1.96658C19.8386 1.21486 19.2292 0.605469 18.4774 0.605469Z" fill="white" stroke="white" stroke-width="0.5"/>
</mask>
<g mask="url(#mask0_3046_2319)">
<path fill-rule="evenodd" clip-rule="evenodd" d="M0 4.85655H20.033V0.412109H0V4.85655Z" fill="#FFA44A"/>
<path fill-rule="evenodd" clip-rule="evenodd" d="M0 13.7452H20.033V9.30078H0V13.7452Z" fill="#1A9F0B"/>
<path d="M10.0165 8.67148C10.9324 8.67148 11.7067 7.97545 11.7067 7.07892C11.7067 6.18241 10.9324 5.48633 10.0165 5.48633C9.10057 5.48633 8.32629 6.18241 8.32629 7.07892C8.32629 7.97545 9.10057 8.67148 10.0165 8.67148Z" fill="#181A93" fill-opacity="0.15" stroke="#181A93" stroke-width="0.666667"/>
<path fill-rule="evenodd" clip-rule="evenodd" d="M10.0166 7.52366C10.28 7.52366 10.4935 7.32467 10.4935 7.07921C10.4935 6.83375 10.28 6.63477 10.0166 6.63477C9.75313 6.63477 9.53955 6.83375 9.53955 7.07921C9.53955 7.32467 9.75313 7.52366 10.0166 7.52366Z" fill="#181A93"/>
</g>
</g>
<defs>
<clipPath id="clip0_3046_2319">
<rect width="20.2222" height="14" fill="white"/>
</clipPath>
</defs>
</svg>
