<?xml version="1.0" encoding="utf-8"?>
<!-- Generator: Adobe Illustrator 24.1.3, SVG Export Plug-In . SVG Version: 6.00 Build 0)  -->
<svg version="1.1" id="Warstwa_1" xmlns="http://www.w3.org/2000/svg" xmlns:xlink="http://www.w3.org/1999/xlink" x="0px" y="0px"
	 viewBox="0 0 145.19 26.41" style="enable-background:new 0 0 145.19 26.41;" xml:space="preserve">
<style type="text/css">
	.st0{fill:#404042;}
	.st1{fill:#FFFFFF;}
	.st2{fill:#FECA09;}
</style>
<g>
	<g>
		<rect x="67.96" y="0.76" class="st0" width="76.52" height="24.89"/>
		<polygon class="st1" points="81.45,14.61 79.13,17 79.13,20.74 76.41,20.74 76.41,6.09 79.13,6.09 79.13,13.61 86.37,6.09 
			89.43,6.09 83.27,12.64 89.8,20.74 86.62,20.74 		"/>
		<path class="st1" d="M101.69,9.57v11.18H99.2v-1.42c-0.84,1.03-2.16,1.57-3.6,1.57c-2.87,0-4.81-1.57-4.81-4.94V9.57h2.62v6.03
			c0,2.03,0.96,2.99,2.62,2.99c1.82,0,3.06-1.13,3.06-3.37V9.57H101.69z"/>
		<path class="st1" d="M111,9.44v2.49c-0.23-0.04-0.42-0.06-0.61-0.06c-1.99,0-3.24,1.17-3.24,3.45v5.42h-2.61V9.57h2.49v1.63
			C107.78,10.03,109.14,9.44,111,9.44"/>
		<path class="st1" d="M113.08,6.16c0-0.88,0.71-1.57,1.67-1.57c0.96,0,1.67,0.65,1.67,1.51c0,0.92-0.69,1.63-1.67,1.63
			C113.79,7.73,113.08,7.04,113.08,6.16 M113.44,9.57h2.62v11.18h-2.62V9.57z"/>
		<path class="st1" d="M129.47,15.99h-8.77c0.31,1.63,1.67,2.68,3.62,2.68c1.26,0,2.24-0.4,3.04-1.21l1.4,1.61
			c-1,1.19-2.57,1.82-4.5,1.82c-3.75,0-6.17-2.41-6.17-5.74s2.45-5.71,5.78-5.71c3.26,0,5.65,2.28,5.65,5.78
			C129.52,15.43,129.49,15.74,129.47,15.99 M120.68,14.26h6.34c-0.21-1.61-1.44-2.72-3.16-2.72
			C122.17,11.54,120.93,12.62,120.68,14.26"/>
		<path class="st1" d="M138,9.44v2.49c-0.23-0.04-0.42-0.06-0.61-0.06c-1.99,0-3.24,1.17-3.24,3.45v5.42h-2.61V9.57h2.49v1.63
			C134.78,10.03,136.14,9.44,138,9.44"/>
	</g>
	<g>
		<rect x="0.71" y="0.76" class="st2" width="67.26" height="24.89"/>
		<path class="st0" d="M21.55,20.8h-2.43v-7.01c0-1.47-0.65-2.27-1.83-2.36c-0.73-0.06-1.9,0.12-2.74,0.31v9.06h-2.43V10
			c0,0,2.96-0.66,5.63-0.66c1.16,0,2.08,0.42,2.77,1.11c0.69,0.69,1.04,1.66,1.04,2.9V20.8z"/>
		<path class="st0" d="M62.58,20.87c-0.4,0.1-0.81,0.15-1.24,0.15c-1.37,0-2.28-0.31-2.72-0.92c-0.35-0.48-0.53-1.39-0.53-2.73V6.14
			h2.4v3.17h2.13v1.97h-2.13v5.94c0,0.64,0.08,1.07,0.24,1.27c0.19,0.26,0.6,0.39,1.23,0.39c0.18,0,0.38-0.02,0.62-0.05V20.87z"/>
		<rect x="7.23" y="6.13" class="st0" width="2.48" height="14.66"/>
		<path class="st0" d="M32.1,11.14c0-1.78-0.87-2.66-2.6-2.66h-3.06v5.29h3.02c0.83,0,1.48-0.23,1.94-0.69
			C31.87,12.61,32.1,11.97,32.1,11.14 M34.61,11.14c0,1.5-0.47,2.7-1.39,3.62c-0.93,0.91-2.18,1.36-3.77,1.36h-3.01v4.63h-2.48V6.09
			h5.31c1.72,0,3.04,0.45,3.96,1.34C34.14,8.33,34.61,9.57,34.61,11.14"/>
		<path class="st0" d="M43.58,14.99c0-1.1-0.26-1.98-0.77-2.62c-0.51-0.65-1.19-0.97-2.04-0.97c-0.85,0-1.52,0.33-2.04,0.98
			c-0.51,0.66-0.76,1.52-0.76,2.61c0,1.1,0.25,1.98,0.76,2.63c0.51,0.65,1.19,0.97,2.04,0.97c0.85,0,1.52-0.32,2.04-0.97
			C43.32,16.97,43.58,16.09,43.58,14.99 M46.09,14.98c0,1.76-0.49,3.18-1.48,4.26c-0.99,1.08-2.26,1.61-3.83,1.61
			c-1.57,0-2.85-0.54-3.83-1.61c-0.99-1.08-1.48-2.5-1.48-4.26s0.49-3.18,1.48-4.25c0.99-1.07,2.27-1.61,3.83-1.61
			c1.59,0,2.87,0.54,3.85,1.61C45.6,11.8,46.09,13.22,46.09,14.98"/>
		<path class="st0" d="M56.65,17.01c0,1.11-0.43,2.02-1.29,2.73c-0.86,0.72-1.99,1.07-3.4,1.07c-2.19,0-3.89-0.65-5.09-1.96
			l1.85-1.55c0.92,0.9,1.99,1.35,3.22,1.35c0.68,0,1.22-0.13,1.62-0.4c0.4-0.27,0.6-0.61,0.6-1.02c0-0.47-0.23-0.79-0.69-0.96
			c-0.27-0.1-0.98-0.24-2.14-0.42c-1.39-0.2-2.39-0.51-2.98-0.92c-0.7-0.49-1.04-1.24-1.04-2.23c0-1,0.42-1.84,1.27-2.52
			c0.85-0.67,1.97-1.01,3.38-1.01c1.7,0,3.16,0.56,4.35,1.68l-1.44,1.53c-0.88-0.77-1.87-1.16-2.98-1.16c-1.42,0-2.13,0.4-2.13,1.2
			c0,0.47,0.33,0.78,0.98,0.96c0.92,0.15,1.83,0.3,2.74,0.46C55.59,14.23,56.65,15.29,56.65,17.01"/>
	</g>
</g>
</svg>
