<?xml version="1.0" encoding="utf-8"?>
<!-- Generator: Adobe Illustrator 26.5.0, SVG Export Plug-In . SVG Version: 6.00 Build 0)  -->
<svg version="1.1" id="Warstwa_1" xmlns="http://www.w3.org/2000/svg" xmlns:xlink="http://www.w3.org/1999/xlink" x="0px" y="0px"
	 viewBox="0 0 448.4 46.4" style="enable-background:new 0 0 448.4 46.4;" xml:space="preserve">
<style type="text/css">
	.st0{fill:#FFCC08;}
	.st1{clip-path:url(#SVGID_00000072998330192432610390000011480039038438511788_);fill:#404040;}
	.st2{fill:#404040;}
	.st3{clip-path:url(#SVGID_00000020366862642161072230000012313066793994366347_);fill:#404040;}
	.st4{clip-path:url(#SVGID_00000078014389839467477430000003966797241791951289_);fill:#FFFFFF;}
</style>
<g>
	<rect class="st0" width="125.4" height="46.4"/>
	<g>
		<defs>
			<rect id="SVGID_1_" width="448.4" height="46.4"/>
		</defs>
		<clipPath id="SVGID_00000103976393701512787690000012087960669992978087_">
			<use xlink:href="#SVGID_1_"  style="overflow:visible;"/>
		</clipPath>
		<path style="clip-path:url(#SVGID_00000103976393701512787690000012087960669992978087_);fill:#404040;" d="M38.9,37.4h-4.6V24.3
			c0-2.7-1.2-4.2-3.4-4.4c-1.7,0-3.4,0.2-5.1,0.6v16.9h-4.5V17.2c3.5-0.7,7-1.2,10.5-1.2c1.9,0,3.8,0.7,5.2,2.1
			c1.3,1.5,2,3.4,1.9,5.4V37.4z"/>
		<path style="clip-path:url(#SVGID_00000103976393701512787690000012087960669992978087_);fill:#404040;" d="M115.4,37.5
			c-0.7,0.2-1.5,0.3-2.3,0.3c-1.9,0.3-3.8-0.4-5.1-1.7c-0.8-1.6-1.1-3.3-1-5.1V10h4.5V16h4v3.7h-4v11.1c-0.1,0.8,0.1,1.6,0.4,2.4
			c0.6,0.6,1.5,0.9,2.3,0.7h1.1L115.4,37.5z"/>
	</g>
	<rect x="12.2" y="10" class="st2" width="4.6" height="27.3"/>
	<g>
		<defs>
			<rect id="SVGID_00000182529221355717198570000001128963195793350819_" width="448.4" height="46.4"/>
		</defs>
		<clipPath id="SVGID_00000096059424765599436540000003102948320693915563_">
			<use xlink:href="#SVGID_00000182529221355717198570000001128963195793350819_"  style="overflow:visible;"/>
		</clipPath>
		<path style="clip-path:url(#SVGID_00000096059424765599436540000003102948320693915563_);fill:#404040;" d="M63.2,19.4
			c0.1,2.5-0.8,4.9-2.6,6.7c-1.9,1.8-4.4,2.7-7,2.5H48v8.6h-4.6V9.9h9.9c2.7-0.2,5.3,0.7,7.4,2.4C62.4,14.2,63.4,16.7,63.2,19.4
			 M58.6,19.4c0.4-2.4-1.3-4.6-3.7-5c-0.4-0.1-0.8-0.1-1.2,0H48v9.9h5.6c1.3,0.1,2.6-0.4,3.6-1.3C58.2,22,58.6,20.7,58.6,19.4"/>
		<path style="clip-path:url(#SVGID_00000096059424765599436540000003102948320693915563_);fill:#404040;" d="M84.6,26.6
			c0.1,2.9-0.9,5.7-2.8,7.9c-3.9,4-10.2,4-14.2,0.1c0,0-0.1-0.1-0.1-0.1c-1.9-2.2-2.9-5-2.8-7.9c-0.1-2.9,0.8-5.8,2.8-8
			c3.9-4,10.2-4,14.2-0.1c0,0,0.1,0.1,0.1,0.1C83.8,20.8,84.8,23.6,84.6,26.6 M80,26.5c0.1-1.7-0.4-3.4-1.5-4.8
			c-0.9-1.2-2.3-1.8-3.8-1.8c-1.5,0-2.9,0.6-3.8,1.8c-1,1.4-1.5,3.1-1.4,4.9c-0.1,1.7,0.4,3.5,1.4,4.9c0.9,1.2,2.3,1.9,3.8,1.8
			c1.5,0,2.9-0.6,3.8-1.8C79.5,30,80.1,28.3,80,26.5"/>
		<path style="clip-path:url(#SVGID_00000096059424765599436540000003102948320693915563_);fill:#404040;" d="M104.3,30.3
			c0.1,2-0.8,3.9-2.4,5.1c-1.8,1.4-4,2.1-6.2,2c-3.5,0.2-7-1.1-9.5-3.7l3.3-2.7c1.6,1.6,3.7,2.5,6,2.5c1.1,0.1,2.2-0.2,3.1-0.7
			c0.7-0.4,1.1-1.1,1.1-1.9c0-0.8-0.5-1.6-1.3-1.8c-1.3-0.3-2.6-0.6-4-0.8c-2-0.2-3.9-0.7-5.6-1.7c-1.3-1-2-2.5-1.9-4.2
			c0-1.9,0.9-3.6,2.4-4.7c1.8-1.3,4-2,6.2-1.9c3-0.1,5.9,1,8.1,3.1l-2.6,2.8c-1.5-1.4-3.5-2.1-5.6-2.1c-2.7,0-4,0.7-4,2.2
			c0,0.9,0.6,1.5,1.8,1.8c1.2,0.3,3.4,0.6,5.1,0.8C102.4,25.2,104.3,27.1,104.3,30.3"/>
	</g>
	<rect x="125.4" class="st2" width="322.9" height="46.4"/>
	<g>
		<defs>
			<rect id="SVGID_00000039850677809174533170000008115061572649206965_" width="448.4" height="46.4"/>
		</defs>
		<clipPath id="SVGID_00000072275071687395393690000001979992594327946403_">
			<use xlink:href="#SVGID_00000039850677809174533170000008115061572649206965_"  style="overflow:visible;"/>
		</clipPath>
		<path style="clip-path:url(#SVGID_00000072275071687395393690000001979992594327946403_);fill:#FFFFFF;" d="M415.2,10v8.4h4.5
			v-4.4h10.1l-9.7,21.8h5.1l10-22.6V10H415.2z M399,39.5h4.1l12.2-34.7h-4.1L399,39.5z M398.8,25.9h-4.6v-5.2h-4.5v5.2h-8.4l12-15.9
			h-5.1l-12.7,16.6V30h14.2v5.9h4.6V30h4.6V25.9z M361.4,31.8l6.9-6.6c1.7-1.6,2.8-3,3.4-4.2c0.6-1.2,0.9-2.5,0.9-3.9
			c0-2.3-0.8-4.1-2.5-5.4c-1.7-1.3-3.9-2-6.7-2c-2.1,0-4,0.4-5.7,1.1c-1.7,0.7-3.1,1.8-4.1,3.2l3.4,2.6c1.4-1.8,3.4-2.7,6-2.7
			c1.6,0,2.8,0.3,3.6,1c0.8,0.6,1.2,1.6,1.2,2.8c0,0.8-0.2,1.6-0.6,2.5c-0.4,0.8-1.2,1.8-2.3,2.9l-10.2,9.7v3.2h19v-4.1H361.4z
			 M345.1,31.5c-0.7,0.5-1.5,0.8-2.6,0.8c-0.9,0-1.6-0.3-2-0.8c-0.5-0.5-0.7-1.2-0.7-2.2V20h5.3v-3.7h-5.3v-4.5h-4.6v4.5H332V20h3.2
			v9.5c0,2.2,0.6,3.8,1.8,4.9c1.2,1.1,2.9,1.7,5,1.7c0.9,0,1.7-0.1,2.5-0.3c0.8-0.2,1.4-0.6,2-1L345.1,31.5z M319.1,32.7
			c-1.2,0-2.1-0.2-2.8-0.7c-0.7-0.5-1-1.2-1-2c0-1.7,1.3-2.6,4-2.6h4.8v2.3c-0.4,1-1,1.7-1.9,2.3C321.3,32.5,320.2,32.7,319.1,32.7
			 M319.7,15.9c-1.6,0-3.2,0.2-4.6,0.6s-2.7,1-3.7,1.8l1.8,3.4c0.7-0.6,1.6-1.1,2.7-1.4c1.1-0.3,2.2-0.5,3.3-0.5
			c1.6,0,2.8,0.4,3.7,1.1c0.8,0.7,1.2,1.8,1.2,3.2v0.3H319c-2.8,0-4.9,0.5-6.2,1.6c-1.3,1.1-2,2.5-2,4.3c0,1.1,0.3,2.1,0.9,3
			c0.6,0.9,1.5,1.6,2.6,2.1c1.1,0.5,2.4,0.8,3.9,0.8s2.7-0.2,3.8-0.7s1.8-1.1,2.4-2v2.4h4.4V24.3c0-2.8-0.8-4.9-2.3-6.3
			C324.8,16.6,322.6,15.9,319.7,15.9 M298.2,15.9c-1.5,0-3,0.3-4.2,0.9c-1.3,0.6-2.3,1.4-3.1,2.4c-0.7-1.1-1.6-1.9-2.7-2.5
			c-1.1-0.6-2.5-0.8-3.9-0.8c-1.4,0-2.6,0.2-3.7,0.7c-1.1,0.5-2,1.1-2.8,2v-2.5h-4.4v19.7h4.6v-10c0-1.9,0.5-3.4,1.4-4.4
			c0.9-1,2.2-1.5,3.7-1.5c1.4,0,2.5,0.4,3.3,1.3c0.8,0.9,1.1,2.2,1.1,3.9v10.7h4.6v-10c0-1.9,0.5-3.3,1.4-4.4c0.9-1,2.2-1.5,3.7-1.5
			c1.4,0,2.5,0.4,3.3,1.3c0.8,0.9,1.1,2.2,1.1,3.9v10.7h4.6V24.6c0-2.9-0.7-5-2.2-6.5C302.7,16.6,300.7,15.9,298.2,15.9 M258.4,32.1
			c-1.7,0-3.1-0.6-4.2-1.7s-1.6-2.6-1.6-4.5c0-1.8,0.5-3.3,1.6-4.5c1.1-1.1,2.5-1.7,4.2-1.7c1.7,0,3.1,0.6,4.2,1.7
			c1.1,1.1,1.7,2.6,1.7,4.5c0,1.8-0.6,3.3-1.7,4.5C261.5,31.6,260.1,32.1,258.4,32.1 M258.4,36.1c2,0,3.8-0.4,5.4-1.3
			c1.6-0.9,2.8-2.1,3.7-3.6c0.9-1.5,1.3-3.3,1.3-5.2c0-1.9-0.4-3.7-1.3-5.2c-0.9-1.5-2.1-2.7-3.7-3.6c-1.6-0.9-3.4-1.3-5.4-1.3
			c-2,0-3.8,0.4-5.4,1.3c-1.6,0.9-2.8,2.1-3.7,3.6c-0.9,1.5-1.3,3.3-1.3,5.2c0,1.9,0.4,3.7,1.3,5.2c0.9,1.5,2.1,2.7,3.7,3.6
			C254.7,35.7,256.5,36.1,258.4,36.1 M241.8,35.8h5.6l-9-11.4l8.2-8.3h-5.5l-9.5,8.8V8.5H227v27.4h4.6v-5.2l3.4-3.2L241.8,35.8z
			 M211.6,32.1l10.8-13.1v-2.9H206v3.7h10.6l-10.8,13.1v2.9h17v-3.7H211.6z M195.1,36.1c1.9,0,3.6-0.4,5.1-1.2
			c1.5-0.8,2.6-1.9,3.3-3.4l-3.5-2.1c-0.6,0.9-1.3,1.6-2.1,2c-0.8,0.5-1.8,0.7-2.8,0.7c-1.7,0-3.2-0.6-4.3-1.7
			c-1.1-1.1-1.7-2.6-1.7-4.5c0-1.9,0.6-3.4,1.7-4.5c1.1-1.1,2.6-1.7,4.3-1.7c1,0,1.9,0.2,2.8,0.7c0.8,0.5,1.6,1.1,2.1,2l3.5-2.1
			c-0.7-1.5-1.8-2.6-3.3-3.4c-1.5-0.8-3.2-1.2-5.1-1.2c-2.1,0-3.9,0.4-5.5,1.3c-1.6,0.9-2.9,2.1-3.8,3.6c-0.9,1.5-1.4,3.3-1.4,5.2
			c0,1.9,0.5,3.7,1.4,5.2c0.9,1.5,2.2,2.7,3.8,3.6C191.3,35.7,193.1,36.1,195.1,36.1 M170.4,32.7c-1.2,0-2.1-0.2-2.8-0.7
			c-0.7-0.5-1-1.2-1-2c0-1.7,1.3-2.6,4-2.6h4.8v2.3c-0.4,1-1,1.7-1.9,2.3C172.6,32.5,171.6,32.7,170.4,32.7 M171.1,15.9
			c-1.6,0-3.2,0.2-4.6,0.6c-1.4,0.4-2.7,1-3.7,1.8l1.8,3.4c0.7-0.6,1.6-1.1,2.7-1.4c1.1-0.3,2.2-0.5,3.3-0.5c1.6,0,2.8,0.4,3.7,1.1
			c0.8,0.7,1.2,1.8,1.2,3.2v0.3h-5.1c-2.8,0-4.9,0.5-6.2,1.6c-1.3,1.1-2,2.5-2,4.3c0,1.1,0.3,2.1,0.9,3c0.6,0.9,1.5,1.6,2.6,2.1
			c1.1,0.5,2.4,0.8,3.9,0.8s2.7-0.2,3.8-0.7c1-0.5,1.8-1.1,2.4-2v2.4h4.3V24.3c0-2.8-0.8-4.9-2.3-6.3
			C176.2,16.6,174,15.9,171.1,15.9 M148.2,24.3h-5.6V14.1h5.6c2.1,0,3.7,0.4,4.8,1.3c1.1,0.9,1.6,2.2,1.6,3.8c0,1.6-0.5,2.9-1.6,3.8
			C151.9,23.9,150.3,24.3,148.2,24.3 M148.4,10h-10.6v25.8h4.8v-7.4h5.8c2.2,0,4.2-0.4,5.8-1.1c1.7-0.7,2.9-1.8,3.8-3.2
			c0.9-1.4,1.3-3,1.3-4.9c0-1.9-0.4-3.5-1.3-4.9c-0.9-1.4-2.2-2.4-3.8-3.2C152.6,10.4,150.6,10,148.4,10"/>
	</g>
</g>
</svg>
